solid Swivel_Link_2
   facet normal 0.000000e+000 1.000000e+000 0.000000e+000
      outer loop
         vertex -8.255000e-002 1.778000e-001 -2.540000e-002
         vertex -1.079500e-001 1.778000e-001 -2.540000e-002
         vertex -8.255000e-002 1.778000e-001 2.540000e-002
      endloop
   endfacet
   facet normal 0.000000e+000 1.000000e+000 0.000000e+000
      outer loop
         vertex -8.255000e-002 1.778000e-001 2.540000e-002
         vertex -1.079500e-001 1.778000e-001 -2.540000e-002
         vertex -1.079500e-001 1.778000e-001 2.540000e-002
      endloop
   endfacet
   facet normal 1.000000e+000 0.000000e+000 0.000000e+000
      outer loop
         vertex 1.079500e-001 1.536305e-001 -2.222500e-003
         vertex 1.079500e-001 1.533031e-001 -1.520280e-003
         vertex 1.079500e-001 0.000000e+000 -2.540000e-002
      endloop
   endfacet
   facet normal 1.000000e+000 0.000000e+000 0.000000e+000
      outer loop
         vertex 1.079500e-001 0.000000e+000 2.540000e-002
         vertex 1.079500e-001 1.530350e-001 0.000000e+000
         vertex 1.079500e-001 1.531025e-001 7.718661e-004
      endloop
   endfacet
   facet normal 1.000000e+000 0.000000e+000 0.000000e+000
      outer loop
         vertex 1.079500e-001 1.531025e-001 7.718661e-004
         vertex 1.079500e-001 1.533031e-001 1.520280e-003
         vertex 1.079500e-001 0.000000e+000 2.540000e-002
      endloop
   endfacet
   facet normal 1.000000e+000 0.000000e+000 0.000000e+000
      outer loop
         vertex 1.079500e-001 0.000000e+000 2.540000e-002
         vertex 1.079500e-001 1.533031e-001 1.520280e-003
         vertex 1.079500e-001 1.536305e-001 2.222500e-003
      endloop
   endfacet
   facet normal 1.000000e+000 0.000000e+000 0.000000e+000
      outer loop
         vertex 1.079500e-001 0.000000e+000 2.540000e-002
         vertex 1.079500e-001 1.536305e-001 2.222500e-003
         vertex 1.079500e-001 1.540749e-001 2.857191e-003
      endloop
   endfacet
   facet normal 1.000000e+000 0.000000e+000 0.000000e+000
      outer loop
         vertex 1.079500e-001 0.000000e+000 -2.540000e-002
         vertex 1.079500e-001 1.533031e-001 -1.520280e-003
         vertex 1.079500e-001 0.000000e+000 2.540000e-002
      endloop
   endfacet
   facet normal 1.000000e+000 0.000000e+000 0.000000e+000
      outer loop
         vertex 1.079500e-001 0.000000e+000 2.540000e-002
         vertex 1.079500e-001 1.533031e-001 -1.520280e-003
         vertex 1.079500e-001 1.531025e-001 -7.718661e-004
      endloop
   endfacet
   facet normal 1.000000e+000 0.000000e+000 0.000000e+000
      outer loop
         vertex 1.079500e-001 0.000000e+000 2.540000e-002
         vertex 1.079500e-001 1.531025e-001 -7.718661e-004
         vertex 1.079500e-001 1.530350e-001 0.000000e+000
      endloop
   endfacet
   facet normal 1.000000e+000 0.000000e+000 0.000000e+000
      outer loop
         vertex 1.079500e-001 1.552575e-001 -3.849483e-003
         vertex 1.079500e-001 1.546228e-001 -3.405068e-003
         vertex 1.079500e-001 0.000000e+000 -2.540000e-002
      endloop
   endfacet
   facet normal 1.000000e+000 0.000000e+000 0.000000e+000
      outer loop
         vertex 1.079500e-001 0.000000e+000 -2.540000e-002
         vertex 1.079500e-001 1.546228e-001 -3.405068e-003
         vertex 1.079500e-001 1.540749e-001 -2.857191e-003
      endloop
   endfacet
   facet normal 1.000000e+000 0.000000e+000 0.000000e+000
      outer loop
         vertex 1.079500e-001 0.000000e+000 -2.540000e-002
         vertex 1.079500e-001 1.540749e-001 -2.857191e-003
         vertex 1.079500e-001 1.536305e-001 -2.222500e-003
      endloop
   endfacet
   facet normal 1.000000e+000 0.000000e+000 0.000000e+000
      outer loop
         vertex 1.079500e-001 1.616569e-001 1.520280e-003
         vertex 1.079500e-001 1.778000e-001 2.540000e-002
         vertex 1.079500e-001 1.613295e-001 2.222500e-003
      endloop
   endfacet
   facet normal 1.000000e+000 0.000000e+000 0.000000e+000
      outer loop
         vertex 1.079500e-001 1.613295e-001 2.222500e-003
         vertex 1.079500e-001 1.778000e-001 2.540000e-002
         vertex 1.079500e-001 1.608851e-001 2.857191e-003
      endloop
   endfacet
   facet normal 1.000000e+000 0.000000e+000 0.000000e+000
      outer loop
         vertex 1.079500e-001 1.616569e-001 1.520280e-003
         vertex 1.079500e-001 1.618575e-001 7.718661e-004
         vertex 1.079500e-001 1.778000e-001 2.540000e-002
      endloop
   endfacet
   facet normal 1.000000e+000 0.000000e+000 0.000000e+000
      outer loop
         vertex 1.079500e-001 1.778000e-001 2.540000e-002
         vertex 1.079500e-001 1.618575e-001 7.718661e-004
         vertex 1.079500e-001 1.619250e-001 -3.469447e-018
      endloop
   endfacet
   facet normal 1.000000e+000 0.000000e+000 0.000000e+000
      outer loop
         vertex 1.079500e-001 1.778000e-001 2.540000e-002
         vertex 1.079500e-001 1.619250e-001 -3.469447e-018
         vertex 1.079500e-001 1.778000e-001 -2.540000e-002
      endloop
   endfacet
   facet normal 1.000000e+000 0.000000e+000 0.000000e+000
      outer loop
         vertex 1.079500e-001 1.778000e-001 -2.540000e-002
         vertex 1.079500e-001 1.619250e-001 -3.469447e-018
         vertex 1.079500e-001 1.618575e-001 -7.718661e-004
      endloop
   endfacet
   facet normal 1.000000e+000 0.000000e+000 0.000000e+000
      outer loop
         vertex 1.079500e-001 1.778000e-001 -2.540000e-002
         vertex 1.079500e-001 1.618575e-001 -7.718661e-004
         vertex 1.079500e-001 1.616569e-001 -1.520280e-003
      endloop
   endfacet
   facet normal 1.000000e+000 0.000000e+000 0.000000e+000
      outer loop
         vertex 1.079500e-001 1.616569e-001 -1.520280e-003
         vertex 1.079500e-001 1.613295e-001 -2.222500e-003
         vertex 1.079500e-001 1.778000e-001 -2.540000e-002
      endloop
   endfacet
   facet normal 1.000000e+000 0.000000e+000 0.000000e+000
      outer loop
         vertex 1.079500e-001 1.778000e-001 -2.540000e-002
         vertex 1.079500e-001 1.613295e-001 -2.222500e-003
         vertex 1.079500e-001 1.608851e-001 -2.857191e-003
      endloop
   endfacet
   facet normal 1.000000e+000 0.000000e+000 0.000000e+000
      outer loop
         vertex 1.079500e-001 1.778000e-001 -2.540000e-002
         vertex 1.079500e-001 1.608851e-001 -2.857191e-003
         vertex 1.079500e-001 1.603372e-001 -3.405068e-003
      endloop
   endfacet
   facet normal 1.000000e+000 0.000000e+000 0.000000e+000
      outer loop
         vertex 1.079500e-001 1.582519e-001 -4.377470e-003
         vertex 1.079500e-001 1.574800e-001 -4.445000e-003
         vertex 1.079500e-001 1.778000e-001 -2.540000e-002
      endloop
   endfacet
   facet normal 1.000000e+000 0.000000e+000 0.000000e+000
      outer loop
         vertex 1.079500e-001 1.778000e-001 -2.540000e-002
         vertex 1.079500e-001 1.574800e-001 -4.445000e-003
         vertex 1.079500e-001 1.567081e-001 -4.377470e-003
      endloop
   endfacet
   facet normal 1.000000e+000 0.000000e+000 0.000000e+000
      outer loop
         vertex 1.079500e-001 1.778000e-001 -2.540000e-002
         vertex 1.079500e-001 1.567081e-001 -4.377470e-003
         vertex 1.079500e-001 0.000000e+000 -2.540000e-002
      endloop
   endfacet
   facet normal 1.000000e+000 0.000000e+000 0.000000e+000
      outer loop
         vertex 1.079500e-001 0.000000e+000 -2.540000e-002
         vertex 1.079500e-001 1.567081e-001 -4.377470e-003
         vertex 1.079500e-001 1.559597e-001 -4.176934e-003
      endloop
   endfacet
   facet normal 1.000000e+000 0.000000e+000 0.000000e+000
      outer loop
         vertex 1.079500e-001 0.000000e+000 -2.540000e-002
         vertex 1.079500e-001 1.559597e-001 -4.176934e-003
         vertex 1.079500e-001 1.552575e-001 -3.849483e-003
      endloop
   endfacet
   facet normal 1.000000e+000 0.000000e+000 0.000000e+000
      outer loop
         vertex 1.079500e-001 1.567081e-001 4.377470e-003
         vertex 1.079500e-001 1.574800e-001 4.445000e-003
         vertex 1.079500e-001 1.778000e-001 2.540000e-002
      endloop
   endfacet
   facet normal 1.000000e+000 0.000000e+000 0.000000e+000
      outer loop
         vertex 1.079500e-001 1.778000e-001 2.540000e-002
         vertex 1.079500e-001 1.574800e-001 4.445000e-003
         vertex 1.079500e-001 1.582519e-001 4.377470e-003
      endloop
   endfacet
   facet normal 1.000000e+000 0.000000e+000 0.000000e+000
      outer loop
         vertex 1.079500e-001 1.778000e-001 2.540000e-002
         vertex 1.079500e-001 1.582519e-001 4.377470e-003
         vertex 1.079500e-001 1.590003e-001 4.176934e-003
      endloop
   endfacet
   facet normal 1.000000e+000 0.000000e+000 0.000000e+000
      outer loop
         vertex 1.079500e-001 1.590003e-001 4.176934e-003
         vertex 1.079500e-001 1.597025e-001 3.849483e-003
         vertex 1.079500e-001 1.778000e-001 2.540000e-002
      endloop
   endfacet
   facet normal 1.000000e+000 0.000000e+000 0.000000e+000
      outer loop
         vertex 1.079500e-001 1.778000e-001 2.540000e-002
         vertex 1.079500e-001 1.597025e-001 3.849483e-003
         vertex 1.079500e-001 1.603372e-001 3.405068e-003
      endloop
   endfacet
   facet normal 1.000000e+000 0.000000e+000 0.000000e+000
      outer loop
         vertex 1.079500e-001 1.778000e-001 2.540000e-002
         vertex 1.079500e-001 1.603372e-001 3.405068e-003
         vertex 1.079500e-001 1.608851e-001 2.857191e-003
      endloop
   endfacet
   facet normal 1.000000e+000 0.000000e+000 0.000000e+000
      outer loop
         vertex 1.079500e-001 1.603372e-001 -3.405068e-003
         vertex 1.079500e-001 1.597025e-001 -3.849483e-003
         vertex 1.079500e-001 1.778000e-001 -2.540000e-002
      endloop
   endfacet
   facet normal 1.000000e+000 0.000000e+000 0.000000e+000
      outer loop
         vertex 1.079500e-001 1.778000e-001 -2.540000e-002
         vertex 1.079500e-001 1.597025e-001 -3.849483e-003
         vertex 1.079500e-001 1.590003e-001 -4.176934e-003
      endloop
   endfacet
   facet normal 1.000000e+000 0.000000e+000 0.000000e+000
      outer loop
         vertex 1.079500e-001 1.778000e-001 -2.540000e-002
         vertex 1.079500e-001 1.590003e-001 -4.176934e-003
         vertex 1.079500e-001 1.582519e-001 -4.377470e-003
      endloop
   endfacet
   facet normal 1.000000e+000 0.000000e+000 0.000000e+000
      outer loop
         vertex 1.079500e-001 1.540749e-001 2.857191e-003
         vertex 1.079500e-001 1.546228e-001 3.405068e-003
         vertex 1.079500e-001 0.000000e+000 2.540000e-002
      endloop
   endfacet
   facet normal 1.000000e+000 0.000000e+000 0.000000e+000
      outer loop
         vertex 1.079500e-001 0.000000e+000 2.540000e-002
         vertex 1.079500e-001 1.546228e-001 3.405068e-003
         vertex 1.079500e-001 1.552575e-001 3.849483e-003
      endloop
   endfacet
   facet normal 1.000000e+000 0.000000e+000 0.000000e+000
      outer loop
         vertex 1.079500e-001 0.000000e+000 2.540000e-002
         vertex 1.079500e-001 1.552575e-001 3.849483e-003
         vertex 1.079500e-001 1.778000e-001 2.540000e-002
      endloop
   endfacet
   facet normal 1.000000e+000 0.000000e+000 0.000000e+000
      outer loop
         vertex 1.079500e-001 1.778000e-001 2.540000e-002
         vertex 1.079500e-001 1.552575e-001 3.849483e-003
         vertex 1.079500e-001 1.559597e-001 4.176934e-003
      endloop
   endfacet
   facet normal 1.000000e+000 0.000000e+000 0.000000e+000
      outer loop
         vertex 1.079500e-001 1.778000e-001 2.540000e-002
         vertex 1.079500e-001 1.559597e-001 4.176934e-003
         vertex 1.079500e-001 1.567081e-001 4.377470e-003
      endloop
   endfacet
   facet normal 0.000000e+000 0.000000e+000 -1.000000e+000
      outer loop
         vertex 8.255000e-002 1.778000e-001 -2.540000e-002
         vertex 1.079500e-001 1.778000e-001 -2.540000e-002
         vertex 8.255000e-002 2.540000e-002 -2.540000e-002
      endloop
   endfacet
   facet normal 0.000000e+000 0.000000e+000 -1.000000e+000
      outer loop
         vertex 8.255000e-002 2.540000e-002 -2.540000e-002
         vertex 1.079500e-001 1.778000e-001 -2.540000e-002
         vertex 1.079500e-001 0.000000e+000 -2.540000e-002
      endloop
   endfacet
   facet normal 0.000000e+000 0.000000e+000 -1.000000e+000
      outer loop
         vertex 8.255000e-002 2.540000e-002 -2.540000e-002
         vertex 1.079500e-001 0.000000e+000 -2.540000e-002
         vertex -8.255000e-002 2.540000e-002 -2.540000e-002
      endloop
   endfacet
   facet normal 0.000000e+000 0.000000e+000 -1.000000e+000
      outer loop
         vertex -8.255000e-002 2.540000e-002 -2.540000e-002
         vertex 1.079500e-001 0.000000e+000 -2.540000e-002
         vertex -1.079500e-001 0.000000e+000 -2.540000e-002
      endloop
   endfacet
   facet normal 0.000000e+000 0.000000e+000 -1.000000e+000
      outer loop
         vertex -8.255000e-002 2.540000e-002 -2.540000e-002
         vertex -1.079500e-001 0.000000e+000 -2.540000e-002
         vertex -8.255000e-002 1.778000e-001 -2.540000e-002
      endloop
   endfacet
   facet normal 0.000000e+000 0.000000e+000 -1.000000e+000
      outer loop
         vertex -8.255000e-002 1.778000e-001 -2.540000e-002
         vertex -1.079500e-001 0.000000e+000 -2.540000e-002
         vertex -1.079500e-001 1.778000e-001 -2.540000e-002
      endloop
   endfacet
   facet normal -1.000000e+000 0.000000e+000 0.000000e+000
      outer loop
         vertex -1.079500e-001 1.536305e-001 2.222500e-003
         vertex -1.079500e-001 1.533031e-001 1.520280e-003
         vertex -1.079500e-001 0.000000e+000 2.540000e-002
      endloop
   endfacet
   facet normal -1.000000e+000 0.000000e+000 0.000000e+000
      outer loop
         vertex -1.079500e-001 1.552575e-001 3.849483e-003
         vertex -1.079500e-001 1.546228e-001 3.405068e-003
         vertex -1.079500e-001 0.000000e+000 2.540000e-002
      endloop
   endfacet
   facet normal -1.000000e+000 0.000000e+000 0.000000e+000
      outer loop
         vertex -1.079500e-001 0.000000e+000 2.540000e-002
         vertex -1.079500e-001 1.546228e-001 3.405068e-003
         vertex -1.079500e-001 1.540749e-001 2.857191e-003
      endloop
   endfacet
   facet normal -1.000000e+000 0.000000e+000 0.000000e+000
      outer loop
         vertex -1.079500e-001 0.000000e+000 2.540000e-002
         vertex -1.079500e-001 1.540749e-001 2.857191e-003
         vertex -1.079500e-001 1.536305e-001 2.222500e-003
      endloop
   endfacet
   facet normal -1.000000e+000 0.000000e+000 0.000000e+000
      outer loop
         vertex -1.079500e-001 1.533031e-001 1.520280e-003
         vertex -1.079500e-001 1.531025e-001 7.718661e-004
         vertex -1.079500e-001 0.000000e+000 2.540000e-002
      endloop
   endfacet
   facet normal -1.000000e+000 0.000000e+000 0.000000e+000
      outer loop
         vertex -1.079500e-001 0.000000e+000 2.540000e-002
         vertex -1.079500e-001 1.531025e-001 7.718661e-004
         vertex -1.079500e-001 1.530350e-001 0.000000e+000
      endloop
   endfacet
   facet normal -1.000000e+000 0.000000e+000 0.000000e+000
      outer loop
         vertex -1.079500e-001 0.000000e+000 2.540000e-002
         vertex -1.079500e-001 1.530350e-001 0.000000e+000
         vertex -1.079500e-001 0.000000e+000 -2.540000e-002
      endloop
   endfacet
   facet normal -1.000000e+000 0.000000e+000 0.000000e+000
      outer loop
         vertex -1.079500e-001 0.000000e+000 -2.540000e-002
         vertex -1.079500e-001 1.530350e-001 0.000000e+000
         vertex -1.079500e-001 1.531025e-001 -7.718661e-004
      endloop
   endfacet
   facet normal -1.000000e+000 0.000000e+000 0.000000e+000
      outer loop
         vertex -1.079500e-001 1.778000e-001 2.540000e-002
         vertex -1.079500e-001 1.567081e-001 4.377470e-003
         vertex -1.079500e-001 0.000000e+000 2.540000e-002
      endloop
   endfacet
   facet normal -1.000000e+000 0.000000e+000 0.000000e+000
      outer loop
         vertex -1.079500e-001 0.000000e+000 2.540000e-002
         vertex -1.079500e-001 1.567081e-001 4.377470e-003
         vertex -1.079500e-001 1.559597e-001 4.176934e-003
      endloop
   endfacet
   facet normal -1.000000e+000 0.000000e+000 0.000000e+000
      outer loop
         vertex -1.079500e-001 0.000000e+000 2.540000e-002
         vertex -1.079500e-001 1.559597e-001 4.176934e-003
         vertex -1.079500e-001 1.552575e-001 3.849483e-003
      endloop
   endfacet
   facet normal -1.000000e+000 0.000000e+000 0.000000e+000
      outer loop
         vertex -1.079500e-001 1.531025e-001 -7.718661e-004
         vertex -1.079500e-001 1.533031e-001 -1.520280e-003
         vertex -1.079500e-001 0.000000e+000 -2.540000e-002
      endloop
   endfacet
   facet normal -1.000000e+000 0.000000e+000 0.000000e+000
      outer loop
         vertex -1.079500e-001 0.000000e+000 -2.540000e-002
         vertex -1.079500e-001 1.533031e-001 -1.520280e-003
         vertex -1.079500e-001 1.536305e-001 -2.222500e-003
      endloop
   endfacet
   facet normal -1.000000e+000 0.000000e+000 0.000000e+000
      outer loop
         vertex -1.079500e-001 0.000000e+000 -2.540000e-002
         vertex -1.079500e-001 1.536305e-001 -2.222500e-003
         vertex -1.079500e-001 1.540749e-001 -2.857191e-003
      endloop
   endfacet
   facet normal -1.000000e+000 0.000000e+000 0.000000e+000
      outer loop
         vertex -1.079500e-001 1.616569e-001 -1.520280e-003
         vertex -1.079500e-001 1.778000e-001 -2.540000e-002
         vertex -1.079500e-001 1.613295e-001 -2.222500e-003
      endloop
   endfacet
   facet normal -1.000000e+000 0.000000e+000 0.000000e+000
      outer loop
         vertex -1.079500e-001 1.613295e-001 -2.222500e-003
         vertex -1.079500e-001 1.778000e-001 -2.540000e-002
         vertex -1.079500e-001 1.608851e-001 -2.857191e-003
      endloop
   endfacet
   facet normal -1.000000e+000 0.000000e+000 0.000000e+000
      outer loop
         vertex -1.079500e-001 1.616569e-001 -1.520280e-003
         vertex -1.079500e-001 1.618575e-001 -7.718661e-004
         vertex -1.079500e-001 1.778000e-001 -2.540000e-002
      endloop
   endfacet
   facet normal -1.000000e+000 0.000000e+000 0.000000e+000
      outer loop
         vertex -1.079500e-001 1.778000e-001 -2.540000e-002
         vertex -1.079500e-001 1.618575e-001 -7.718661e-004
         vertex -1.079500e-001 1.619250e-001 -3.469447e-018
      endloop
   endfacet
   facet normal -1.000000e+000 0.000000e+000 0.000000e+000
      outer loop
         vertex -1.079500e-001 1.778000e-001 -2.540000e-002
         vertex -1.079500e-001 1.619250e-001 -3.469447e-018
         vertex -1.079500e-001 1.778000e-001 2.540000e-002
      endloop
   endfacet
   facet normal -1.000000e+000 0.000000e+000 0.000000e+000
      outer loop
         vertex -1.079500e-001 1.778000e-001 2.540000e-002
         vertex -1.079500e-001 1.619250e-001 -3.469447e-018
         vertex -1.079500e-001 1.618575e-001 7.718661e-004
      endloop
   endfacet
   facet normal -1.000000e+000 0.000000e+000 0.000000e+000
      outer loop
         vertex -1.079500e-001 1.618575e-001 7.718661e-004
         vertex -1.079500e-001 1.616569e-001 1.520280e-003
         vertex -1.079500e-001 1.778000e-001 2.540000e-002
      endloop
   endfacet
   facet normal -1.000000e+000 0.000000e+000 0.000000e+000
      outer loop
         vertex -1.079500e-001 1.778000e-001 2.540000e-002
         vertex -1.079500e-001 1.616569e-001 1.520280e-003
         vertex -1.079500e-001 1.613295e-001 2.222500e-003
      endloop
   endfacet
   facet normal -1.000000e+000 0.000000e+000 0.000000e+000
      outer loop
         vertex -1.079500e-001 1.778000e-001 2.540000e-002
         vertex -1.079500e-001 1.613295e-001 2.222500e-003
         vertex -1.079500e-001 1.608851e-001 2.857191e-003
      endloop
   endfacet
   facet normal -1.000000e+000 0.000000e+000 0.000000e+000
      outer loop
         vertex -1.079500e-001 1.608851e-001 2.857191e-003
         vertex -1.079500e-001 1.603372e-001 3.405068e-003
         vertex -1.079500e-001 1.778000e-001 2.540000e-002
      endloop
   endfacet
   facet normal -1.000000e+000 0.000000e+000 0.000000e+000
      outer loop
         vertex -1.079500e-001 1.778000e-001 2.540000e-002
         vertex -1.079500e-001 1.603372e-001 3.405068e-003
         vertex -1.079500e-001 1.597025e-001 3.849483e-003
      endloop
   endfacet
   facet normal -1.000000e+000 0.000000e+000 0.000000e+000
      outer loop
         vertex -1.079500e-001 1.778000e-001 2.540000e-002
         vertex -1.079500e-001 1.597025e-001 3.849483e-003
         vertex -1.079500e-001 1.590003e-001 4.176934e-003
      endloop
   endfacet
   facet normal -1.000000e+000 0.000000e+000 0.000000e+000
      outer loop
         vertex -1.079500e-001 1.590003e-001 4.176934e-003
         vertex -1.079500e-001 1.582519e-001 4.377470e-003
         vertex -1.079500e-001 1.778000e-001 2.540000e-002
      endloop
   endfacet
   facet normal -1.000000e+000 0.000000e+000 0.000000e+000
      outer loop
         vertex -1.079500e-001 1.778000e-001 2.540000e-002
         vertex -1.079500e-001 1.582519e-001 4.377470e-003
         vertex -1.079500e-001 1.574800e-001 4.445000e-003
      endloop
   endfacet
   facet normal -1.000000e+000 0.000000e+000 0.000000e+000
      outer loop
         vertex -1.079500e-001 1.778000e-001 2.540000e-002
         vertex -1.079500e-001 1.574800e-001 4.445000e-003
         vertex -1.079500e-001 1.567081e-001 4.377470e-003
      endloop
   endfacet
   facet normal -1.000000e+000 0.000000e+000 0.000000e+000
      outer loop
         vertex -1.079500e-001 1.567081e-001 -4.377470e-003
         vertex -1.079500e-001 1.574800e-001 -4.445000e-003
         vertex -1.079500e-001 1.778000e-001 -2.540000e-002
      endloop
   endfacet
   facet normal -1.000000e+000 0.000000e+000 0.000000e+000
      outer loop
         vertex -1.079500e-001 1.778000e-001 -2.540000e-002
         vertex -1.079500e-001 1.574800e-001 -4.445000e-003
         vertex -1.079500e-001 1.582519e-001 -4.377470e-003
      endloop
   endfacet
   facet normal -1.000000e+000 0.000000e+000 0.000000e+000
      outer loop
         vertex -1.079500e-001 1.778000e-001 -2.540000e-002
         vertex -1.079500e-001 1.582519e-001 -4.377470e-003
         vertex -1.079500e-001 1.590003e-001 -4.176934e-003
      endloop
   endfacet
   facet normal -1.000000e+000 0.000000e+000 0.000000e+000
      outer loop
         vertex -1.079500e-001 1.540749e-001 -2.857191e-003
         vertex -1.079500e-001 1.546228e-001 -3.405068e-003
         vertex -1.079500e-001 0.000000e+000 -2.540000e-002
      endloop
   endfacet
   facet normal -1.000000e+000 0.000000e+000 0.000000e+000
      outer loop
         vertex -1.079500e-001 0.000000e+000 -2.540000e-002
         vertex -1.079500e-001 1.546228e-001 -3.405068e-003
         vertex -1.079500e-001 1.552575e-001 -3.849483e-003
      endloop
   endfacet
   facet normal -1.000000e+000 0.000000e+000 0.000000e+000
      outer loop
         vertex -1.079500e-001 0.000000e+000 -2.540000e-002
         vertex -1.079500e-001 1.552575e-001 -3.849483e-003
         vertex -1.079500e-001 1.778000e-001 -2.540000e-002
      endloop
   endfacet
   facet normal -1.000000e+000 0.000000e+000 0.000000e+000
      outer loop
         vertex -1.079500e-001 1.778000e-001 -2.540000e-002
         vertex -1.079500e-001 1.552575e-001 -3.849483e-003
         vertex -1.079500e-001 1.559597e-001 -4.176934e-003
      endloop
   endfacet
   facet normal -1.000000e+000 0.000000e+000 0.000000e+000
      outer loop
         vertex -1.079500e-001 1.778000e-001 -2.540000e-002
         vertex -1.079500e-001 1.559597e-001 -4.176934e-003
         vertex -1.079500e-001 1.567081e-001 -4.377470e-003
      endloop
   endfacet
   facet normal -1.000000e+000 0.000000e+000 0.000000e+000
      outer loop
         vertex -1.079500e-001 1.590003e-001 -4.176934e-003
         vertex -1.079500e-001 1.597025e-001 -3.849483e-003
         vertex -1.079500e-001 1.778000e-001 -2.540000e-002
      endloop
   endfacet
   facet normal -1.000000e+000 0.000000e+000 0.000000e+000
      outer loop
         vertex -1.079500e-001 1.778000e-001 -2.540000e-002
         vertex -1.079500e-001 1.597025e-001 -3.849483e-003
         vertex -1.079500e-001 1.603372e-001 -3.405068e-003
      endloop
   endfacet
   facet normal -1.000000e+000 0.000000e+000 0.000000e+000
      outer loop
         vertex -1.079500e-001 1.778000e-001 -2.540000e-002
         vertex -1.079500e-001 1.603372e-001 -3.405068e-003
         vertex -1.079500e-001 1.608851e-001 -2.857191e-003
      endloop
   endfacet
   facet normal 0.000000e+000 0.000000e+000 1.000000e+000
      outer loop
         vertex -8.255000e-002 1.778000e-001 2.540000e-002
         vertex -1.079500e-001 1.778000e-001 2.540000e-002
         vertex -8.255000e-002 2.540000e-002 2.540000e-002
      endloop
   endfacet
   facet normal 0.000000e+000 0.000000e+000 1.000000e+000
      outer loop
         vertex -8.255000e-002 2.540000e-002 2.540000e-002
         vertex -1.079500e-001 1.778000e-001 2.540000e-002
         vertex -1.079500e-001 0.000000e+000 2.540000e-002
      endloop
   endfacet
   facet normal 0.000000e+000 0.000000e+000 1.000000e+000
      outer loop
         vertex -8.255000e-002 2.540000e-002 2.540000e-002
         vertex -1.079500e-001 0.000000e+000 2.540000e-002
         vertex 8.255000e-002 2.540000e-002 2.540000e-002
      endloop
   endfacet
   facet normal 0.000000e+000 0.000000e+000 1.000000e+000
      outer loop
         vertex 8.255000e-002 2.540000e-002 2.540000e-002
         vertex -1.079500e-001 0.000000e+000 2.540000e-002
         vertex 1.079500e-001 0.000000e+000 2.540000e-002
      endloop
   endfacet
   facet normal 0.000000e+000 0.000000e+000 1.000000e+000
      outer loop
         vertex 8.255000e-002 2.540000e-002 2.540000e-002
         vertex 1.079500e-001 0.000000e+000 2.540000e-002
         vertex 8.255000e-002 1.778000e-001 2.540000e-002
      endloop
   endfacet
   facet normal 0.000000e+000 0.000000e+000 1.000000e+000
      outer loop
         vertex 8.255000e-002 1.778000e-001 2.540000e-002
         vertex 1.079500e-001 0.000000e+000 2.540000e-002
         vertex 1.079500e-001 1.778000e-001 2.540000e-002
      endloop
   endfacet
   facet normal 0.000000e+000 1.000000e+000 0.000000e+000
      outer loop
         vertex 8.255000e-002 1.778000e-001 2.540000e-002
         vertex 1.079500e-001 1.778000e-001 2.540000e-002
         vertex 8.255000e-002 1.778000e-001 -2.540000e-002
      endloop
   endfacet
   facet normal 0.000000e+000 1.000000e+000 0.000000e+000
      outer loop
         vertex 8.255000e-002 1.778000e-001 -2.540000e-002
         vertex 1.079500e-001 1.778000e-001 2.540000e-002
         vertex 1.079500e-001 1.778000e-001 -2.540000e-002
      endloop
   endfacet
   facet normal 0.000000e+000 -1.000000e+000 0.000000e+000
      outer loop
         vertex -1.079500e-001 0.000000e+000 2.540000e-002
         vertex -1.079500e-001 0.000000e+000 -2.540000e-002
         vertex 1.079500e-001 0.000000e+000 2.540000e-002
      endloop
   endfacet
   facet normal 0.000000e+000 -1.000000e+000 0.000000e+000
      outer loop
         vertex 1.079500e-001 0.000000e+000 2.540000e-002
         vertex -1.079500e-001 0.000000e+000 -2.540000e-002
         vertex 1.079500e-001 0.000000e+000 -2.540000e-002
      endloop
   endfacet
   facet normal -1.260853e-016 1.000000e+000 0.000000e+000
      outer loop
         vertex 8.255000e-002 2.540000e-002 -2.540000e-002
         vertex -8.255000e-002 2.540000e-002 -2.540000e-002
         vertex 8.255000e-002 2.540000e-002 2.540000e-002
      endloop
   endfacet
   facet normal -1.260853e-016 1.000000e+000 0.000000e+000
      outer loop
         vertex 8.255000e-002 2.540000e-002 2.540000e-002
         vertex -8.255000e-002 2.540000e-002 -2.540000e-002
         vertex -8.255000e-002 2.540000e-002 2.540000e-002
      endloop
   endfacet
   facet normal 1.000000e+000 0.000000e+000 0.000000e+000
      outer loop
         vertex -8.255000e-002 1.531025e-001 7.718661e-004
         vertex -8.255000e-002 1.533031e-001 1.520280e-003
         vertex -8.255000e-002 2.540000e-002 2.540000e-002
      endloop
   endfacet
   facet normal 1.000000e+000 0.000000e+000 0.000000e+000
      outer loop
         vertex -8.255000e-002 2.540000e-002 2.540000e-002
         vertex -8.255000e-002 1.533031e-001 1.520280e-003
         vertex -8.255000e-002 1.536305e-001 2.222500e-003
      endloop
   endfacet
   facet normal 1.000000e+000 0.000000e+000 0.000000e+000
      outer loop
         vertex -8.255000e-002 2.540000e-002 2.540000e-002
         vertex -8.255000e-002 1.536305e-001 2.222500e-003
         vertex -8.255000e-002 1.540749e-001 2.857191e-003
      endloop
   endfacet
   facet normal 1.000000e+000 0.000000e+000 0.000000e+000
      outer loop
         vertex -8.255000e-002 1.536305e-001 -2.222500e-003
         vertex -8.255000e-002 1.533031e-001 -1.520280e-003
         vertex -8.255000e-002 2.540000e-002 -2.540000e-002
      endloop
   endfacet
   facet normal 1.000000e+000 0.000000e+000 0.000000e+000
      outer loop
         vertex -8.255000e-002 2.540000e-002 -2.540000e-002
         vertex -8.255000e-002 1.533031e-001 -1.520280e-003
         vertex -8.255000e-002 1.531025e-001 -7.718661e-004
      endloop
   endfacet
   facet normal 1.000000e+000 0.000000e+000 0.000000e+000
      outer loop
         vertex -8.255000e-002 2.540000e-002 -2.540000e-002
         vertex -8.255000e-002 1.531025e-001 -7.718661e-004
         vertex -8.255000e-002 2.540000e-002 2.540000e-002
      endloop
   endfacet
   facet normal 1.000000e+000 0.000000e+000 0.000000e+000
      outer loop
         vertex -8.255000e-002 2.540000e-002 2.540000e-002
         vertex -8.255000e-002 1.531025e-001 -7.718661e-004
         vertex -8.255000e-002 1.530350e-001 0.000000e+000
      endloop
   endfacet
   facet normal 1.000000e+000 0.000000e+000 0.000000e+000
      outer loop
         vertex -8.255000e-002 2.540000e-002 2.540000e-002
         vertex -8.255000e-002 1.530350e-001 0.000000e+000
         vertex -8.255000e-002 1.531025e-001 7.718661e-004
      endloop
   endfacet
   facet normal 1.000000e+000 0.000000e+000 0.000000e+000
      outer loop
         vertex -8.255000e-002 1.552575e-001 -3.849483e-003
         vertex -8.255000e-002 1.546228e-001 -3.405068e-003
         vertex -8.255000e-002 2.540000e-002 -2.540000e-002
      endloop
   endfacet
   facet normal 1.000000e+000 0.000000e+000 0.000000e+000
      outer loop
         vertex -8.255000e-002 2.540000e-002 -2.540000e-002
         vertex -8.255000e-002 1.546228e-001 -3.405068e-003
         vertex -8.255000e-002 1.540749e-001 -2.857191e-003
      endloop
   endfacet
   facet normal 1.000000e+000 0.000000e+000 0.000000e+000
      outer loop
         vertex -8.255000e-002 2.540000e-002 -2.540000e-002
         vertex -8.255000e-002 1.540749e-001 -2.857191e-003
         vertex -8.255000e-002 1.536305e-001 -2.222500e-003
      endloop
   endfacet
   facet normal 1.000000e+000 0.000000e+000 0.000000e+000
      outer loop
         vertex -8.255000e-002 1.616569e-001 1.520280e-003
         vertex -8.255000e-002 1.778000e-001 2.540000e-002
         vertex -8.255000e-002 1.613295e-001 2.222500e-003
      endloop
   endfacet
   facet normal 1.000000e+000 0.000000e+000 0.000000e+000
      outer loop
         vertex -8.255000e-002 1.613295e-001 2.222500e-003
         vertex -8.255000e-002 1.778000e-001 2.540000e-002
         vertex -8.255000e-002 1.608851e-001 2.857191e-003
      endloop
   endfacet
   facet normal 1.000000e+000 0.000000e+000 0.000000e+000
      outer loop
         vertex -8.255000e-002 1.616569e-001 1.520280e-003
         vertex -8.255000e-002 1.618575e-001 7.718661e-004
         vertex -8.255000e-002 1.778000e-001 2.540000e-002
      endloop
   endfacet
   facet normal 1.000000e+000 0.000000e+000 0.000000e+000
      outer loop
         vertex -8.255000e-002 1.778000e-001 2.540000e-002
         vertex -8.255000e-002 1.618575e-001 7.718661e-004
         vertex -8.255000e-002 1.619250e-001 -3.469447e-018
      endloop
   endfacet
   facet normal 1.000000e+000 0.000000e+000 0.000000e+000
      outer loop
         vertex -8.255000e-002 1.778000e-001 2.540000e-002
         vertex -8.255000e-002 1.619250e-001 -3.469447e-018
         vertex -8.255000e-002 1.778000e-001 -2.540000e-002
      endloop
   endfacet
   facet normal 1.000000e+000 0.000000e+000 0.000000e+000
      outer loop
         vertex -8.255000e-002 1.778000e-001 -2.540000e-002
         vertex -8.255000e-002 1.619250e-001 -3.469447e-018
         vertex -8.255000e-002 1.618575e-001 -7.718661e-004
      endloop
   endfacet
   facet normal 1.000000e+000 0.000000e+000 0.000000e+000
      outer loop
         vertex -8.255000e-002 1.778000e-001 -2.540000e-002
         vertex -8.255000e-002 1.618575e-001 -7.718661e-004
         vertex -8.255000e-002 1.616569e-001 -1.520280e-003
      endloop
   endfacet
   facet normal 1.000000e+000 0.000000e+000 0.000000e+000
      outer loop
         vertex -8.255000e-002 1.616569e-001 -1.520280e-003
         vertex -8.255000e-002 1.613295e-001 -2.222500e-003
         vertex -8.255000e-002 1.778000e-001 -2.540000e-002
      endloop
   endfacet
   facet normal 1.000000e+000 0.000000e+000 0.000000e+000
      outer loop
         vertex -8.255000e-002 1.778000e-001 -2.540000e-002
         vertex -8.255000e-002 1.613295e-001 -2.222500e-003
         vertex -8.255000e-002 1.608851e-001 -2.857191e-003
      endloop
   endfacet
   facet normal 1.000000e+000 0.000000e+000 0.000000e+000
      outer loop
         vertex -8.255000e-002 1.778000e-001 -2.540000e-002
         vertex -8.255000e-002 1.608851e-001 -2.857191e-003
         vertex -8.255000e-002 1.603372e-001 -3.405068e-003
      endloop
   endfacet
   facet normal 1.000000e+000 0.000000e+000 0.000000e+000
      outer loop
         vertex -8.255000e-002 1.582519e-001 -4.377470e-003
         vertex -8.255000e-002 1.574800e-001 -4.445000e-003
         vertex -8.255000e-002 1.778000e-001 -2.540000e-002
      endloop
   endfacet
   facet normal 1.000000e+000 0.000000e+000 0.000000e+000
      outer loop
         vertex -8.255000e-002 1.778000e-001 -2.540000e-002
         vertex -8.255000e-002 1.574800e-001 -4.445000e-003
         vertex -8.255000e-002 1.567081e-001 -4.377470e-003
      endloop
   endfacet
   facet normal 1.000000e+000 0.000000e+000 0.000000e+000
      outer loop
         vertex -8.255000e-002 1.778000e-001 -2.540000e-002
         vertex -8.255000e-002 1.567081e-001 -4.377470e-003
         vertex -8.255000e-002 2.540000e-002 -2.540000e-002
      endloop
   endfacet
   facet normal 1.000000e+000 0.000000e+000 0.000000e+000
      outer loop
         vertex -8.255000e-002 2.540000e-002 -2.540000e-002
         vertex -8.255000e-002 1.567081e-001 -4.377470e-003
         vertex -8.255000e-002 1.559597e-001 -4.176934e-003
      endloop
   endfacet
   facet normal 1.000000e+000 0.000000e+000 0.000000e+000
      outer loop
         vertex -8.255000e-002 2.540000e-002 -2.540000e-002
         vertex -8.255000e-002 1.559597e-001 -4.176934e-003
         vertex -8.255000e-002 1.552575e-001 -3.849483e-003
      endloop
   endfacet
   facet normal 1.000000e+000 0.000000e+000 0.000000e+000
      outer loop
         vertex -8.255000e-002 1.567081e-001 4.377470e-003
         vertex -8.255000e-002 1.574800e-001 4.445000e-003
         vertex -8.255000e-002 1.778000e-001 2.540000e-002
      endloop
   endfacet
   facet normal 1.000000e+000 0.000000e+000 0.000000e+000
      outer loop
         vertex -8.255000e-002 1.778000e-001 2.540000e-002
         vertex -8.255000e-002 1.574800e-001 4.445000e-003
         vertex -8.255000e-002 1.582519e-001 4.377470e-003
      endloop
   endfacet
   facet normal 1.000000e+000 0.000000e+000 0.000000e+000
      outer loop
         vertex -8.255000e-002 1.778000e-001 2.540000e-002
         vertex -8.255000e-002 1.582519e-001 4.377470e-003
         vertex -8.255000e-002 1.590003e-001 4.176934e-003
      endloop
   endfacet
   facet normal 1.000000e+000 0.000000e+000 0.000000e+000
      outer loop
         vertex -8.255000e-002 1.590003e-001 4.176934e-003
         vertex -8.255000e-002 1.597025e-001 3.849483e-003
         vertex -8.255000e-002 1.778000e-001 2.540000e-002
      endloop
   endfacet
   facet normal 1.000000e+000 0.000000e+000 0.000000e+000
      outer loop
         vertex -8.255000e-002 1.778000e-001 2.540000e-002
         vertex -8.255000e-002 1.597025e-001 3.849483e-003
         vertex -8.255000e-002 1.603372e-001 3.405068e-003
      endloop
   endfacet
   facet normal 1.000000e+000 0.000000e+000 0.000000e+000
      outer loop
         vertex -8.255000e-002 1.778000e-001 2.540000e-002
         vertex -8.255000e-002 1.603372e-001 3.405068e-003
         vertex -8.255000e-002 1.608851e-001 2.857191e-003
      endloop
   endfacet
   facet normal 1.000000e+000 0.000000e+000 0.000000e+000
      outer loop
         vertex -8.255000e-002 1.603372e-001 -3.405068e-003
         vertex -8.255000e-002 1.597025e-001 -3.849483e-003
         vertex -8.255000e-002 1.778000e-001 -2.540000e-002
      endloop
   endfacet
   facet normal 1.000000e+000 0.000000e+000 0.000000e+000
      outer loop
         vertex -8.255000e-002 1.778000e-001 -2.540000e-002
         vertex -8.255000e-002 1.597025e-001 -3.849483e-003
         vertex -8.255000e-002 1.590003e-001 -4.176934e-003
      endloop
   endfacet
   facet normal 1.000000e+000 0.000000e+000 0.000000e+000
      outer loop
         vertex -8.255000e-002 1.778000e-001 -2.540000e-002
         vertex -8.255000e-002 1.590003e-001 -4.176934e-003
         vertex -8.255000e-002 1.582519e-001 -4.377470e-003
      endloop
   endfacet
   facet normal 1.000000e+000 0.000000e+000 0.000000e+000
      outer loop
         vertex -8.255000e-002 1.540749e-001 2.857191e-003
         vertex -8.255000e-002 1.546228e-001 3.405068e-003
         vertex -8.255000e-002 2.540000e-002 2.540000e-002
      endloop
   endfacet
   facet normal 1.000000e+000 0.000000e+000 0.000000e+000
      outer loop
         vertex -8.255000e-002 2.540000e-002 2.540000e-002
         vertex -8.255000e-002 1.546228e-001 3.405068e-003
         vertex -8.255000e-002 1.552575e-001 3.849483e-003
      endloop
   endfacet
   facet normal 1.000000e+000 0.000000e+000 0.000000e+000
      outer loop
         vertex -8.255000e-002 2.540000e-002 2.540000e-002
         vertex -8.255000e-002 1.552575e-001 3.849483e-003
         vertex -8.255000e-002 1.778000e-001 2.540000e-002
      endloop
   endfacet
   facet normal 1.000000e+000 0.000000e+000 0.000000e+000
      outer loop
         vertex -8.255000e-002 1.778000e-001 2.540000e-002
         vertex -8.255000e-002 1.552575e-001 3.849483e-003
         vertex -8.255000e-002 1.559597e-001 4.176934e-003
      endloop
   endfacet
   facet normal 1.000000e+000 0.000000e+000 0.000000e+000
      outer loop
         vertex -8.255000e-002 1.778000e-001 2.540000e-002
         vertex -8.255000e-002 1.559597e-001 4.176934e-003
         vertex -8.255000e-002 1.567081e-001 4.377470e-003
      endloop
   endfacet
   facet normal -1.000000e+000 0.000000e+000 0.000000e+000
      outer loop
         vertex 8.255000e-002 1.536305e-001 2.222500e-003
         vertex 8.255000e-002 1.533031e-001 1.520280e-003
         vertex 8.255000e-002 2.540000e-002 2.540000e-002
      endloop
   endfacet
   facet normal -1.000000e+000 0.000000e+000 0.000000e+000
      outer loop
         vertex 8.255000e-002 1.552575e-001 3.849483e-003
         vertex 8.255000e-002 1.546228e-001 3.405068e-003
         vertex 8.255000e-002 2.540000e-002 2.540000e-002
      endloop
   endfacet
   facet normal -1.000000e+000 0.000000e+000 0.000000e+000
      outer loop
         vertex 8.255000e-002 2.540000e-002 2.540000e-002
         vertex 8.255000e-002 1.546228e-001 3.405068e-003
         vertex 8.255000e-002 1.540749e-001 2.857191e-003
      endloop
   endfacet
   facet normal -1.000000e+000 0.000000e+000 0.000000e+000
      outer loop
         vertex 8.255000e-002 2.540000e-002 2.540000e-002
         vertex 8.255000e-002 1.540749e-001 2.857191e-003
         vertex 8.255000e-002 1.536305e-001 2.222500e-003
      endloop
   endfacet
   facet normal -1.000000e+000 0.000000e+000 0.000000e+000
      outer loop
         vertex 8.255000e-002 1.533031e-001 1.520280e-003
         vertex 8.255000e-002 1.531025e-001 7.718661e-004
         vertex 8.255000e-002 2.540000e-002 2.540000e-002
      endloop
   endfacet
   facet normal -1.000000e+000 0.000000e+000 0.000000e+000
      outer loop
         vertex 8.255000e-002 2.540000e-002 2.540000e-002
         vertex 8.255000e-002 1.531025e-001 7.718661e-004
         vertex 8.255000e-002 1.530350e-001 0.000000e+000
      endloop
   endfacet
   facet normal -1.000000e+000 0.000000e+000 0.000000e+000
      outer loop
         vertex 8.255000e-002 2.540000e-002 2.540000e-002
         vertex 8.255000e-002 1.530350e-001 0.000000e+000
         vertex 8.255000e-002 2.540000e-002 -2.540000e-002
      endloop
   endfacet
   facet normal -1.000000e+000 0.000000e+000 0.000000e+000
      outer loop
         vertex 8.255000e-002 2.540000e-002 -2.540000e-002
         vertex 8.255000e-002 1.530350e-001 0.000000e+000
         vertex 8.255000e-002 1.531025e-001 -7.718661e-004
      endloop
   endfacet
   facet normal -1.000000e+000 0.000000e+000 0.000000e+000
      outer loop
         vertex 8.255000e-002 1.778000e-001 2.540000e-002
         vertex 8.255000e-002 1.567081e-001 4.377470e-003
         vertex 8.255000e-002 2.540000e-002 2.540000e-002
      endloop
   endfacet
   facet normal -1.000000e+000 0.000000e+000 0.000000e+000
      outer loop
         vertex 8.255000e-002 2.540000e-002 2.540000e-002
         vertex 8.255000e-002 1.567081e-001 4.377470e-003
         vertex 8.255000e-002 1.559597e-001 4.176934e-003
      endloop
   endfacet
   facet normal -1.000000e+000 0.000000e+000 0.000000e+000
      outer loop
         vertex 8.255000e-002 2.540000e-002 2.540000e-002
         vertex 8.255000e-002 1.559597e-001 4.176934e-003
         vertex 8.255000e-002 1.552575e-001 3.849483e-003
      endloop
   endfacet
   facet normal -1.000000e+000 0.000000e+000 0.000000e+000
      outer loop
         vertex 8.255000e-002 1.531025e-001 -7.718661e-004
         vertex 8.255000e-002 1.533031e-001 -1.520280e-003
         vertex 8.255000e-002 2.540000e-002 -2.540000e-002
      endloop
   endfacet
   facet normal -1.000000e+000 0.000000e+000 0.000000e+000
      outer loop
         vertex 8.255000e-002 2.540000e-002 -2.540000e-002
         vertex 8.255000e-002 1.533031e-001 -1.520280e-003
         vertex 8.255000e-002 1.536305e-001 -2.222500e-003
      endloop
   endfacet
   facet normal -1.000000e+000 0.000000e+000 0.000000e+000
      outer loop
         vertex 8.255000e-002 2.540000e-002 -2.540000e-002
         vertex 8.255000e-002 1.536305e-001 -2.222500e-003
         vertex 8.255000e-002 1.540749e-001 -2.857191e-003
      endloop
   endfacet
   facet normal -1.000000e+000 0.000000e+000 0.000000e+000
      outer loop
         vertex 8.255000e-002 1.616569e-001 -1.520280e-003
         vertex 8.255000e-002 1.778000e-001 -2.540000e-002
         vertex 8.255000e-002 1.613295e-001 -2.222500e-003
      endloop
   endfacet
   facet normal -1.000000e+000 0.000000e+000 0.000000e+000
      outer loop
         vertex 8.255000e-002 1.613295e-001 -2.222500e-003
         vertex 8.255000e-002 1.778000e-001 -2.540000e-002
         vertex 8.255000e-002 1.608851e-001 -2.857191e-003
      endloop
   endfacet
   facet normal -1.000000e+000 0.000000e+000 0.000000e+000
      outer loop
         vertex 8.255000e-002 1.616569e-001 -1.520280e-003
         vertex 8.255000e-002 1.618575e-001 -7.718661e-004
         vertex 8.255000e-002 1.778000e-001 -2.540000e-002
      endloop
   endfacet
   facet normal -1.000000e+000 0.000000e+000 0.000000e+000
      outer loop
         vertex 8.255000e-002 1.778000e-001 -2.540000e-002
         vertex 8.255000e-002 1.618575e-001 -7.718661e-004
         vertex 8.255000e-002 1.619250e-001 -3.469447e-018
      endloop
   endfacet
   facet normal -1.000000e+000 0.000000e+000 0.000000e+000
      outer loop
         vertex 8.255000e-002 1.778000e-001 -2.540000e-002
         vertex 8.255000e-002 1.619250e-001 -3.469447e-018
         vertex 8.255000e-002 1.778000e-001 2.540000e-002
      endloop
   endfacet
   facet normal -1.000000e+000 0.000000e+000 0.000000e+000
      outer loop
         vertex 8.255000e-002 1.778000e-001 2.540000e-002
         vertex 8.255000e-002 1.619250e-001 -3.469447e-018
         vertex 8.255000e-002 1.618575e-001 7.718661e-004
      endloop
   endfacet
   facet normal -1.000000e+000 0.000000e+000 0.000000e+000
      outer loop
         vertex 8.255000e-002 1.618575e-001 7.718661e-004
         vertex 8.255000e-002 1.616569e-001 1.520280e-003
         vertex 8.255000e-002 1.778000e-001 2.540000e-002
      endloop
   endfacet
   facet normal -1.000000e+000 0.000000e+000 0.000000e+000
      outer loop
         vertex 8.255000e-002 1.778000e-001 2.540000e-002
         vertex 8.255000e-002 1.616569e-001 1.520280e-003
         vertex 8.255000e-002 1.613295e-001 2.222500e-003
      endloop
   endfacet
   facet normal -1.000000e+000 0.000000e+000 0.000000e+000
      outer loop
         vertex 8.255000e-002 1.778000e-001 2.540000e-002
         vertex 8.255000e-002 1.613295e-001 2.222500e-003
         vertex 8.255000e-002 1.608851e-001 2.857191e-003
      endloop
   endfacet
   facet normal -1.000000e+000 0.000000e+000 0.000000e+000
      outer loop
         vertex 8.255000e-002 1.608851e-001 2.857191e-003
         vertex 8.255000e-002 1.603372e-001 3.405068e-003
         vertex 8.255000e-002 1.778000e-001 2.540000e-002
      endloop
   endfacet
   facet normal -1.000000e+000 0.000000e+000 0.000000e+000
      outer loop
         vertex 8.255000e-002 1.778000e-001 2.540000e-002
         vertex 8.255000e-002 1.603372e-001 3.405068e-003
         vertex 8.255000e-002 1.597025e-001 3.849483e-003
      endloop
   endfacet
   facet normal -1.000000e+000 0.000000e+000 0.000000e+000
      outer loop
         vertex 8.255000e-002 1.778000e-001 2.540000e-002
         vertex 8.255000e-002 1.597025e-001 3.849483e-003
         vertex 8.255000e-002 1.590003e-001 4.176934e-003
      endloop
   endfacet
   facet normal -1.000000e+000 0.000000e+000 0.000000e+000
      outer loop
         vertex 8.255000e-002 1.590003e-001 4.176934e-003
         vertex 8.255000e-002 1.582519e-001 4.377470e-003
         vertex 8.255000e-002 1.778000e-001 2.540000e-002
      endloop
   endfacet
   facet normal -1.000000e+000 0.000000e+000 0.000000e+000
      outer loop
         vertex 8.255000e-002 1.778000e-001 2.540000e-002
         vertex 8.255000e-002 1.582519e-001 4.377470e-003
         vertex 8.255000e-002 1.574800e-001 4.445000e-003
      endloop
   endfacet
   facet normal -1.000000e+000 0.000000e+000 0.000000e+000
      outer loop
         vertex 8.255000e-002 1.778000e-001 2.540000e-002
         vertex 8.255000e-002 1.574800e-001 4.445000e-003
         vertex 8.255000e-002 1.567081e-001 4.377470e-003
      endloop
   endfacet
   facet normal -1.000000e+000 0.000000e+000 0.000000e+000
      outer loop
         vertex 8.255000e-002 1.567081e-001 -4.377470e-003
         vertex 8.255000e-002 1.574800e-001 -4.445000e-003
         vertex 8.255000e-002 1.778000e-001 -2.540000e-002
      endloop
   endfacet
   facet normal -1.000000e+000 0.000000e+000 0.000000e+000
      outer loop
         vertex 8.255000e-002 1.778000e-001 -2.540000e-002
         vertex 8.255000e-002 1.574800e-001 -4.445000e-003
         vertex 8.255000e-002 1.582519e-001 -4.377470e-003
      endloop
   endfacet
   facet normal -1.000000e+000 0.000000e+000 0.000000e+000
      outer loop
         vertex 8.255000e-002 1.778000e-001 -2.540000e-002
         vertex 8.255000e-002 1.582519e-001 -4.377470e-003
         vertex 8.255000e-002 1.590003e-001 -4.176934e-003
      endloop
   endfacet
   facet normal -1.000000e+000 0.000000e+000 0.000000e+000
      outer loop
         vertex 8.255000e-002 1.540749e-001 -2.857191e-003
         vertex 8.255000e-002 1.546228e-001 -3.405068e-003
         vertex 8.255000e-002 2.540000e-002 -2.540000e-002
      endloop
   endfacet
   facet normal -1.000000e+000 0.000000e+000 0.000000e+000
      outer loop
         vertex 8.255000e-002 2.540000e-002 -2.540000e-002
         vertex 8.255000e-002 1.546228e-001 -3.405068e-003
         vertex 8.255000e-002 1.552575e-001 -3.849483e-003
      endloop
   endfacet
   facet normal -1.000000e+000 0.000000e+000 0.000000e+000
      outer loop
         vertex 8.255000e-002 2.540000e-002 -2.540000e-002
         vertex 8.255000e-002 1.552575e-001 -3.849483e-003
         vertex 8.255000e-002 1.778000e-001 -2.540000e-002
      endloop
   endfacet
   facet normal -1.000000e+000 0.000000e+000 0.000000e+000
      outer loop
         vertex 8.255000e-002 1.778000e-001 -2.540000e-002
         vertex 8.255000e-002 1.552575e-001 -3.849483e-003
         vertex 8.255000e-002 1.559597e-001 -4.176934e-003
      endloop
   endfacet
   facet normal -1.000000e+000 0.000000e+000 0.000000e+000
      outer loop
         vertex 8.255000e-002 1.778000e-001 -2.540000e-002
         vertex 8.255000e-002 1.559597e-001 -4.176934e-003
         vertex 8.255000e-002 1.567081e-001 -4.377470e-003
      endloop
   endfacet
   facet normal -1.000000e+000 0.000000e+000 0.000000e+000
      outer loop
         vertex 8.255000e-002 1.590003e-001 -4.176934e-003
         vertex 8.255000e-002 1.597025e-001 -3.849483e-003
         vertex 8.255000e-002 1.778000e-001 -2.540000e-002
      endloop
   endfacet
   facet normal -1.000000e+000 0.000000e+000 0.000000e+000
      outer loop
         vertex 8.255000e-002 1.778000e-001 -2.540000e-002
         vertex 8.255000e-002 1.597025e-001 -3.849483e-003
         vertex 8.255000e-002 1.603372e-001 -3.405068e-003
      endloop
   endfacet
   facet normal -1.000000e+000 0.000000e+000 0.000000e+000
      outer loop
         vertex 8.255000e-002 1.778000e-001 -2.540000e-002
         vertex 8.255000e-002 1.603372e-001 -3.405068e-003
         vertex 8.255000e-002 1.608851e-001 -2.857191e-003
      endloop
   endfacet
   facet normal 0.000000e+000 5.807914e-002 9.983120e-001
      outer loop
         vertex 8.255000e-002 1.567081e-001 -4.377470e-003
         vertex 1.079500e-001 1.574800e-001 -4.445000e-003
         vertex 8.255000e-002 1.574800e-001 -4.445000e-003
      endloop
   endfacet
   facet normal 0.000000e+000 -5.807914e-002 9.983120e-001
      outer loop
         vertex 8.255000e-002 1.574800e-001 -4.445000e-003
         vertex 1.079500e-001 1.574800e-001 -4.445000e-003
         vertex 1.079500e-001 1.582519e-001 -4.377470e-003
      endloop
   endfacet
   facet normal 0.000000e+000 -1.161583e-001 9.932307e-001
      outer loop
         vertex 8.255000e-002 1.574800e-001 -4.445000e-003
         vertex 1.079500e-001 1.582519e-001 -4.377470e-003
         vertex 8.255000e-002 1.582519e-001 -4.377470e-003
      endloop
   endfacet
   facet normal 0.000000e+000 -2.305519e-001 9.730600e-001
      outer loop
         vertex 8.255000e-002 1.582519e-001 -4.377470e-003
         vertex 1.079500e-001 1.582519e-001 -4.377470e-003
         vertex 1.079500e-001 1.590003e-001 -4.176934e-003
      endloop
   endfacet
   facet normal 0.000000e+000 -2.868663e-001 9.579706e-001
      outer loop
         vertex 8.255000e-002 1.582519e-001 -4.377470e-003
         vertex 1.079500e-001 1.590003e-001 -4.176934e-003
         vertex 8.255000e-002 1.590003e-001 -4.176934e-003
      endloop
   endfacet
   facet normal 0.000000e+000 -3.960194e-001 9.182422e-001
      outer loop
         vertex 8.255000e-002 1.590003e-001 -4.176934e-003
         vertex 1.079500e-001 1.590003e-001 -4.176934e-003
         vertex 1.079500e-001 1.597025e-001 -3.849483e-003
      endloop
   endfacet
   facet normal 0.000000e+000 -4.488580e-001 8.936031e-001
      outer loop
         vertex 8.255000e-002 1.590003e-001 -4.176934e-003
         vertex 1.079500e-001 1.597025e-001 -3.849483e-003
         vertex 8.255000e-002 1.597025e-001 -3.849483e-003
      endloop
   endfacet
   facet normal 0.000000e+000 -5.494540e-001 8.355240e-001
      outer loop
         vertex 8.255000e-002 1.597025e-001 -3.849483e-003
         vertex 1.079500e-001 1.597025e-001 -3.849483e-003
         vertex 1.079500e-001 1.603372e-001 -3.405068e-003
      endloop
   endfacet
   facet normal 0.000000e+000 -5.972114e-001 8.020839e-001
      outer loop
         vertex 8.255000e-002 1.597025e-001 -3.849483e-003
         vertex 1.079500e-001 1.603372e-001 -3.405068e-003
         vertex 8.255000e-002 1.603372e-001 -3.405068e-003
      endloop
   endfacet
   facet normal 0.000000e+000 -6.861938e-001 7.274188e-001
      outer loop
         vertex 8.255000e-002 1.603372e-001 -3.405068e-003
         vertex 1.079500e-001 1.603372e-001 -3.405068e-003
         vertex 1.079500e-001 1.608851e-001 -2.857191e-003
      endloop
   endfacet
   facet normal 0.000000e+000 -7.274188e-001 6.861938e-001
      outer loop
         vertex 8.255000e-002 1.603372e-001 -3.405068e-003
         vertex 1.079500e-001 1.608851e-001 -2.857191e-003
         vertex 8.255000e-002 1.608851e-001 -2.857191e-003
      endloop
   endfacet
   facet normal 0.000000e+000 -8.020839e-001 5.972114e-001
      outer loop
         vertex 8.255000e-002 1.608851e-001 -2.857191e-003
         vertex 1.079500e-001 1.608851e-001 -2.857191e-003
         vertex 1.079500e-001 1.613295e-001 -2.222500e-003
      endloop
   endfacet
   facet normal 0.000000e+000 -8.355240e-001 5.494540e-001
      outer loop
         vertex 8.255000e-002 1.608851e-001 -2.857191e-003
         vertex 1.079500e-001 1.613295e-001 -2.222500e-003
         vertex 8.255000e-002 1.613295e-001 -2.222500e-003
      endloop
   endfacet
   facet normal 0.000000e+000 -8.936031e-001 4.488580e-001
      outer loop
         vertex 8.255000e-002 1.613295e-001 -2.222500e-003
         vertex 1.079500e-001 1.613295e-001 -2.222500e-003
         vertex 1.079500e-001 1.616569e-001 -1.520280e-003
      endloop
   endfacet
   facet normal 0.000000e+000 -9.182422e-001 3.960194e-001
      outer loop
         vertex 8.255000e-002 1.613295e-001 -2.222500e-003
         vertex 1.079500e-001 1.616569e-001 -1.520280e-003
         vertex 8.255000e-002 1.616569e-001 -1.520280e-003
      endloop
   endfacet
   facet normal 0.000000e+000 -9.579706e-001 2.868663e-001
      outer loop
         vertex 8.255000e-002 1.616569e-001 -1.520280e-003
         vertex 1.079500e-001 1.616569e-001 -1.520280e-003
         vertex 1.079500e-001 1.618575e-001 -7.718661e-004
      endloop
   endfacet
   facet normal 0.000000e+000 -9.730600e-001 2.305519e-001
      outer loop
         vertex 8.255000e-002 1.616569e-001 -1.520280e-003
         vertex 1.079500e-001 1.618575e-001 -7.718661e-004
         vertex 8.255000e-002 1.618575e-001 -7.718661e-004
      endloop
   endfacet
   facet normal 0.000000e+000 -9.932307e-001 1.161583e-001
      outer loop
         vertex 8.255000e-002 1.618575e-001 -7.718661e-004
         vertex 1.079500e-001 1.618575e-001 -7.718661e-004
         vertex 1.079500e-001 1.619250e-001 -2.760660e-018
      endloop
   endfacet
   facet normal 0.000000e+000 -9.983120e-001 5.807914e-002
      outer loop
         vertex 8.255000e-002 1.618575e-001 -7.718661e-004
         vertex 1.079500e-001 1.619250e-001 -2.760660e-018
         vertex 8.255000e-002 1.619250e-001 -2.760660e-018
      endloop
   endfacet
   facet normal 0.000000e+000 -9.983120e-001 -5.807914e-002
      outer loop
         vertex 8.255000e-002 1.619250e-001 -2.760660e-018
         vertex 1.079500e-001 1.619250e-001 -2.760660e-018
         vertex 1.079500e-001 1.618575e-001 7.718661e-004
      endloop
   endfacet
   facet normal 0.000000e+000 -9.932307e-001 -1.161583e-001
      outer loop
         vertex 8.255000e-002 1.619250e-001 -2.760660e-018
         vertex 1.079500e-001 1.618575e-001 7.718661e-004
         vertex 8.255000e-002 1.618575e-001 7.718661e-004
      endloop
   endfacet
   facet normal 0.000000e+000 -9.730600e-001 -2.305519e-001
      outer loop
         vertex 8.255000e-002 1.618575e-001 7.718661e-004
         vertex 1.079500e-001 1.618575e-001 7.718661e-004
         vertex 1.079500e-001 1.616569e-001 1.520280e-003
      endloop
   endfacet
   facet normal 0.000000e+000 -9.579706e-001 -2.868663e-001
      outer loop
         vertex 8.255000e-002 1.618575e-001 7.718661e-004
         vertex 1.079500e-001 1.616569e-001 1.520280e-003
         vertex 8.255000e-002 1.616569e-001 1.520280e-003
      endloop
   endfacet
   facet normal 0.000000e+000 -9.182422e-001 -3.960194e-001
      outer loop
         vertex 8.255000e-002 1.616569e-001 1.520280e-003
         vertex 1.079500e-001 1.616569e-001 1.520280e-003
         vertex 1.079500e-001 1.613295e-001 2.222500e-003
      endloop
   endfacet
   facet normal 0.000000e+000 -8.936031e-001 -4.488580e-001
      outer loop
         vertex 8.255000e-002 1.616569e-001 1.520280e-003
         vertex 1.079500e-001 1.613295e-001 2.222500e-003
         vertex 8.255000e-002 1.613295e-001 2.222500e-003
      endloop
   endfacet
   facet normal 0.000000e+000 -8.355240e-001 -5.494540e-001
      outer loop
         vertex 8.255000e-002 1.613295e-001 2.222500e-003
         vertex 1.079500e-001 1.613295e-001 2.222500e-003
         vertex 1.079500e-001 1.608851e-001 2.857191e-003
      endloop
   endfacet
   facet normal 0.000000e+000 -8.020839e-001 -5.972114e-001
      outer loop
         vertex 8.255000e-002 1.613295e-001 2.222500e-003
         vertex 1.079500e-001 1.608851e-001 2.857191e-003
         vertex 8.255000e-002 1.608851e-001 2.857191e-003
      endloop
   endfacet
   facet normal 0.000000e+000 -7.274188e-001 -6.861938e-001
      outer loop
         vertex 8.255000e-002 1.608851e-001 2.857191e-003
         vertex 1.079500e-001 1.608851e-001 2.857191e-003
         vertex 1.079500e-001 1.603372e-001 3.405068e-003
      endloop
   endfacet
   facet normal 0.000000e+000 -6.861938e-001 -7.274188e-001
      outer loop
         vertex 8.255000e-002 1.608851e-001 2.857191e-003
         vertex 1.079500e-001 1.603372e-001 3.405068e-003
         vertex 8.255000e-002 1.603372e-001 3.405068e-003
      endloop
   endfacet
   facet normal 0.000000e+000 -5.972114e-001 -8.020839e-001
      outer loop
         vertex 8.255000e-002 1.603372e-001 3.405068e-003
         vertex 1.079500e-001 1.603372e-001 3.405068e-003
         vertex 1.079500e-001 1.597025e-001 3.849483e-003
      endloop
   endfacet
   facet normal 0.000000e+000 -5.494540e-001 -8.355240e-001
      outer loop
         vertex 8.255000e-002 1.603372e-001 3.405068e-003
         vertex 1.079500e-001 1.597025e-001 3.849483e-003
         vertex 8.255000e-002 1.597025e-001 3.849483e-003
      endloop
   endfacet
   facet normal 0.000000e+000 -4.488580e-001 -8.936031e-001
      outer loop
         vertex 8.255000e-002 1.597025e-001 3.849483e-003
         vertex 1.079500e-001 1.597025e-001 3.849483e-003
         vertex 1.079500e-001 1.590003e-001 4.176934e-003
      endloop
   endfacet
   facet normal 0.000000e+000 -3.960194e-001 -9.182422e-001
      outer loop
         vertex 8.255000e-002 1.597025e-001 3.849483e-003
         vertex 1.079500e-001 1.590003e-001 4.176934e-003
         vertex 8.255000e-002 1.590003e-001 4.176934e-003
      endloop
   endfacet
   facet normal 0.000000e+000 -2.868663e-001 -9.579706e-001
      outer loop
         vertex 8.255000e-002 1.590003e-001 4.176934e-003
         vertex 1.079500e-001 1.590003e-001 4.176934e-003
         vertex 1.079500e-001 1.582519e-001 4.377470e-003
      endloop
   endfacet
   facet normal 0.000000e+000 -2.305519e-001 -9.730600e-001
      outer loop
         vertex 8.255000e-002 1.590003e-001 4.176934e-003
         vertex 1.079500e-001 1.582519e-001 4.377470e-003
         vertex 8.255000e-002 1.582519e-001 4.377470e-003
      endloop
   endfacet
   facet normal 0.000000e+000 -1.161583e-001 -9.932307e-001
      outer loop
         vertex 8.255000e-002 1.582519e-001 4.377470e-003
         vertex 1.079500e-001 1.582519e-001 4.377470e-003
         vertex 1.079500e-001 1.574800e-001 4.445000e-003
      endloop
   endfacet
   facet normal 0.000000e+000 -5.807914e-002 -9.983120e-001
      outer loop
         vertex 8.255000e-002 1.582519e-001 4.377470e-003
         vertex 1.079500e-001 1.574800e-001 4.445000e-003
         vertex 8.255000e-002 1.574800e-001 4.445000e-003
      endloop
   endfacet
   facet normal 0.000000e+000 5.807914e-002 -9.983120e-001
      outer loop
         vertex 8.255000e-002 1.574800e-001 4.445000e-003
         vertex 1.079500e-001 1.574800e-001 4.445000e-003
         vertex 1.079500e-001 1.567081e-001 4.377470e-003
      endloop
   endfacet
   facet normal 0.000000e+000 1.161583e-001 -9.932307e-001
      outer loop
         vertex 8.255000e-002 1.574800e-001 4.445000e-003
         vertex 1.079500e-001 1.567081e-001 4.377470e-003
         vertex 8.255000e-002 1.567081e-001 4.377470e-003
      endloop
   endfacet
   facet normal 0.000000e+000 2.305519e-001 -9.730600e-001
      outer loop
         vertex 8.255000e-002 1.567081e-001 4.377470e-003
         vertex 1.079500e-001 1.567081e-001 4.377470e-003
         vertex 1.079500e-001 1.559597e-001 4.176934e-003
      endloop
   endfacet
   facet normal 0.000000e+000 2.868663e-001 -9.579706e-001
      outer loop
         vertex 8.255000e-002 1.567081e-001 4.377470e-003
         vertex 1.079500e-001 1.559597e-001 4.176934e-003
         vertex 8.255000e-002 1.559597e-001 4.176934e-003
      endloop
   endfacet
   facet normal 0.000000e+000 3.960194e-001 -9.182422e-001
      outer loop
         vertex 8.255000e-002 1.559597e-001 4.176934e-003
         vertex 1.079500e-001 1.559597e-001 4.176934e-003
         vertex 1.079500e-001 1.552575e-001 3.849483e-003
      endloop
   endfacet
   facet normal 0.000000e+000 4.488580e-001 -8.936031e-001
      outer loop
         vertex 8.255000e-002 1.559597e-001 4.176934e-003
         vertex 1.079500e-001 1.552575e-001 3.849483e-003
         vertex 8.255000e-002 1.552575e-001 3.849483e-003
      endloop
   endfacet
   facet normal 0.000000e+000 5.494540e-001 -8.355240e-001
      outer loop
         vertex 8.255000e-002 1.552575e-001 3.849483e-003
         vertex 1.079500e-001 1.552575e-001 3.849483e-003
         vertex 1.079500e-001 1.546228e-001 3.405068e-003
      endloop
   endfacet
   facet normal 0.000000e+000 5.972114e-001 -8.020839e-001
      outer loop
         vertex 8.255000e-002 1.552575e-001 3.849483e-003
         vertex 1.079500e-001 1.546228e-001 3.405068e-003
         vertex 8.255000e-002 1.546228e-001 3.405068e-003
      endloop
   endfacet
   facet normal 0.000000e+000 6.861938e-001 -7.274188e-001
      outer loop
         vertex 8.255000e-002 1.546228e-001 3.405068e-003
         vertex 1.079500e-001 1.546228e-001 3.405068e-003
         vertex 1.079500e-001 1.540749e-001 2.857191e-003
      endloop
   endfacet
   facet normal 0.000000e+000 7.274188e-001 -6.861938e-001
      outer loop
         vertex 8.255000e-002 1.546228e-001 3.405068e-003
         vertex 1.079500e-001 1.540749e-001 2.857191e-003
         vertex 8.255000e-002 1.540749e-001 2.857191e-003
      endloop
   endfacet
   facet normal 0.000000e+000 8.020839e-001 -5.972114e-001
      outer loop
         vertex 8.255000e-002 1.540749e-001 2.857191e-003
         vertex 1.079500e-001 1.540749e-001 2.857191e-003
         vertex 1.079500e-001 1.536305e-001 2.222500e-003
      endloop
   endfacet
   facet normal 0.000000e+000 8.355240e-001 -5.494540e-001
      outer loop
         vertex 8.255000e-002 1.540749e-001 2.857191e-003
         vertex 1.079500e-001 1.536305e-001 2.222500e-003
         vertex 8.255000e-002 1.536305e-001 2.222500e-003
      endloop
   endfacet
   facet normal 0.000000e+000 8.936031e-001 -4.488580e-001
      outer loop
         vertex 8.255000e-002 1.536305e-001 2.222500e-003
         vertex 1.079500e-001 1.536305e-001 2.222500e-003
         vertex 1.079500e-001 1.533031e-001 1.520280e-003
      endloop
   endfacet
   facet normal 0.000000e+000 9.182422e-001 -3.960194e-001
      outer loop
         vertex 8.255000e-002 1.536305e-001 2.222500e-003
         vertex 1.079500e-001 1.533031e-001 1.520280e-003
         vertex 8.255000e-002 1.533031e-001 1.520280e-003
      endloop
   endfacet
   facet normal 0.000000e+000 9.579706e-001 -2.868663e-001
      outer loop
         vertex 8.255000e-002 1.533031e-001 1.520280e-003
         vertex 1.079500e-001 1.533031e-001 1.520280e-003
         vertex 1.079500e-001 1.531025e-001 7.718661e-004
      endloop
   endfacet
   facet normal 0.000000e+000 9.730600e-001 -2.305519e-001
      outer loop
         vertex 8.255000e-002 1.533031e-001 1.520280e-003
         vertex 1.079500e-001 1.531025e-001 7.718661e-004
         vertex 8.255000e-002 1.531025e-001 7.718661e-004
      endloop
   endfacet
   facet normal 0.000000e+000 9.932307e-001 -1.161583e-001
      outer loop
         vertex 8.255000e-002 1.531025e-001 7.718661e-004
         vertex 1.079500e-001 1.531025e-001 7.718661e-004
         vertex 1.079500e-001 1.530350e-001 -1.671949e-018
      endloop
   endfacet
   facet normal 0.000000e+000 9.983120e-001 -5.807914e-002
      outer loop
         vertex 8.255000e-002 1.531025e-001 7.718661e-004
         vertex 1.079500e-001 1.530350e-001 -1.671949e-018
         vertex 8.255000e-002 1.530350e-001 -1.671949e-018
      endloop
   endfacet
   facet normal 0.000000e+000 9.983120e-001 5.807914e-002
      outer loop
         vertex 8.255000e-002 1.530350e-001 -1.671949e-018
         vertex 1.079500e-001 1.530350e-001 -1.671949e-018
         vertex 1.079500e-001 1.531025e-001 -7.718661e-004
      endloop
   endfacet
   facet normal 0.000000e+000 9.932307e-001 1.161583e-001
      outer loop
         vertex 8.255000e-002 1.530350e-001 -1.671949e-018
         vertex 1.079500e-001 1.531025e-001 -7.718661e-004
         vertex 8.255000e-002 1.531025e-001 -7.718661e-004
      endloop
   endfacet
   facet normal 0.000000e+000 9.730600e-001 2.305519e-001
      outer loop
         vertex 8.255000e-002 1.531025e-001 -7.718661e-004
         vertex 1.079500e-001 1.531025e-001 -7.718661e-004
         vertex 1.079500e-001 1.533031e-001 -1.520280e-003
      endloop
   endfacet
   facet normal 0.000000e+000 9.579706e-001 2.868663e-001
      outer loop
         vertex 8.255000e-002 1.531025e-001 -7.718661e-004
         vertex 1.079500e-001 1.533031e-001 -1.520280e-003
         vertex 8.255000e-002 1.533031e-001 -1.520280e-003
      endloop
   endfacet
   facet normal 0.000000e+000 9.182422e-001 3.960194e-001
      outer loop
         vertex 8.255000e-002 1.533031e-001 -1.520280e-003
         vertex 1.079500e-001 1.533031e-001 -1.520280e-003
         vertex 1.079500e-001 1.536305e-001 -2.222500e-003
      endloop
   endfacet
   facet normal 0.000000e+000 8.936031e-001 4.488580e-001
      outer loop
         vertex 8.255000e-002 1.533031e-001 -1.520280e-003
         vertex 1.079500e-001 1.536305e-001 -2.222500e-003
         vertex 8.255000e-002 1.536305e-001 -2.222500e-003
      endloop
   endfacet
   facet normal 0.000000e+000 8.355240e-001 5.494540e-001
      outer loop
         vertex 8.255000e-002 1.536305e-001 -2.222500e-003
         vertex 1.079500e-001 1.536305e-001 -2.222500e-003
         vertex 1.079500e-001 1.540749e-001 -2.857191e-003
      endloop
   endfacet
   facet normal 0.000000e+000 8.020839e-001 5.972114e-001
      outer loop
         vertex 8.255000e-002 1.536305e-001 -2.222500e-003
         vertex 1.079500e-001 1.540749e-001 -2.857191e-003
         vertex 8.255000e-002 1.540749e-001 -2.857191e-003
      endloop
   endfacet
   facet normal 0.000000e+000 7.274188e-001 6.861938e-001
      outer loop
         vertex 8.255000e-002 1.540749e-001 -2.857191e-003
         vertex 1.079500e-001 1.540749e-001 -2.857191e-003
         vertex 1.079500e-001 1.546228e-001 -3.405068e-003
      endloop
   endfacet
   facet normal 0.000000e+000 6.861938e-001 7.274188e-001
      outer loop
         vertex 8.255000e-002 1.540749e-001 -2.857191e-003
         vertex 1.079500e-001 1.546228e-001 -3.405068e-003
         vertex 8.255000e-002 1.546228e-001 -3.405068e-003
      endloop
   endfacet
   facet normal 0.000000e+000 5.972114e-001 8.020839e-001
      outer loop
         vertex 8.255000e-002 1.546228e-001 -3.405068e-003
         vertex 1.079500e-001 1.546228e-001 -3.405068e-003
         vertex 1.079500e-001 1.552575e-001 -3.849483e-003
      endloop
   endfacet
   facet normal 0.000000e+000 5.494540e-001 8.355240e-001
      outer loop
         vertex 8.255000e-002 1.546228e-001 -3.405068e-003
         vertex 1.079500e-001 1.552575e-001 -3.849483e-003
         vertex 8.255000e-002 1.552575e-001 -3.849483e-003
      endloop
   endfacet
   facet normal 0.000000e+000 4.488580e-001 8.936031e-001
      outer loop
         vertex 8.255000e-002 1.552575e-001 -3.849483e-003
         vertex 1.079500e-001 1.552575e-001 -3.849483e-003
         vertex 1.079500e-001 1.559597e-001 -4.176934e-003
      endloop
   endfacet
   facet normal 0.000000e+000 3.960194e-001 9.182422e-001
      outer loop
         vertex 8.255000e-002 1.552575e-001 -3.849483e-003
         vertex 1.079500e-001 1.559597e-001 -4.176934e-003
         vertex 8.255000e-002 1.559597e-001 -4.176934e-003
      endloop
   endfacet
   facet normal 0.000000e+000 2.868663e-001 9.579706e-001
      outer loop
         vertex 8.255000e-002 1.559597e-001 -4.176934e-003
         vertex 1.079500e-001 1.559597e-001 -4.176934e-003
         vertex 1.079500e-001 1.567081e-001 -4.377470e-003
      endloop
   endfacet
   facet normal 0.000000e+000 2.305519e-001 9.730600e-001
      outer loop
         vertex 8.255000e-002 1.559597e-001 -4.176934e-003
         vertex 1.079500e-001 1.567081e-001 -4.377470e-003
         vertex 8.255000e-002 1.567081e-001 -4.377470e-003
      endloop
   endfacet
   facet normal 0.000000e+000 1.161583e-001 9.932307e-001
      outer loop
         vertex 8.255000e-002 1.567081e-001 -4.377470e-003
         vertex 1.079500e-001 1.567081e-001 -4.377470e-003
         vertex 1.079500e-001 1.574800e-001 -4.445000e-003
      endloop
   endfacet
   facet normal 0.000000e+000 5.807914e-002 9.983120e-001
      outer loop
         vertex -1.079500e-001 1.567081e-001 -4.377470e-003
         vertex -8.255000e-002 1.574800e-001 -4.445000e-003
         vertex -1.079500e-001 1.574800e-001 -4.445000e-003
      endloop
   endfacet
   facet normal 0.000000e+000 -5.807914e-002 9.983120e-001
      outer loop
         vertex -1.079500e-001 1.574800e-001 -4.445000e-003
         vertex -8.255000e-002 1.574800e-001 -4.445000e-003
         vertex -8.255000e-002 1.582519e-001 -4.377470e-003
      endloop
   endfacet
   facet normal 0.000000e+000 -1.161583e-001 9.932307e-001
      outer loop
         vertex -1.079500e-001 1.574800e-001 -4.445000e-003
         vertex -8.255000e-002 1.582519e-001 -4.377470e-003
         vertex -1.079500e-001 1.582519e-001 -4.377470e-003
      endloop
   endfacet
   facet normal 0.000000e+000 -2.305519e-001 9.730600e-001
      outer loop
         vertex -1.079500e-001 1.582519e-001 -4.377470e-003
         vertex -8.255000e-002 1.582519e-001 -4.377470e-003
         vertex -8.255000e-002 1.590003e-001 -4.176934e-003
      endloop
   endfacet
   facet normal 0.000000e+000 -2.868663e-001 9.579706e-001
      outer loop
         vertex -1.079500e-001 1.582519e-001 -4.377470e-003
         vertex -8.255000e-002 1.590003e-001 -4.176934e-003
         vertex -1.079500e-001 1.590003e-001 -4.176934e-003
      endloop
   endfacet
   facet normal 0.000000e+000 -3.960194e-001 9.182422e-001
      outer loop
         vertex -1.079500e-001 1.590003e-001 -4.176934e-003
         vertex -8.255000e-002 1.590003e-001 -4.176934e-003
         vertex -8.255000e-002 1.597025e-001 -3.849483e-003
      endloop
   endfacet
   facet normal 0.000000e+000 -4.488580e-001 8.936031e-001
      outer loop
         vertex -1.079500e-001 1.590003e-001 -4.176934e-003
         vertex -8.255000e-002 1.597025e-001 -3.849483e-003
         vertex -1.079500e-001 1.597025e-001 -3.849483e-003
      endloop
   endfacet
   facet normal 0.000000e+000 -5.494540e-001 8.355240e-001
      outer loop
         vertex -1.079500e-001 1.597025e-001 -3.849483e-003
         vertex -8.255000e-002 1.597025e-001 -3.849483e-003
         vertex -8.255000e-002 1.603372e-001 -3.405068e-003
      endloop
   endfacet
   facet normal 0.000000e+000 -5.972114e-001 8.020839e-001
      outer loop
         vertex -1.079500e-001 1.597025e-001 -3.849483e-003
         vertex -8.255000e-002 1.603372e-001 -3.405068e-003
         vertex -1.079500e-001 1.603372e-001 -3.405068e-003
      endloop
   endfacet
   facet normal 0.000000e+000 -6.861938e-001 7.274188e-001
      outer loop
         vertex -1.079500e-001 1.603372e-001 -3.405068e-003
         vertex -8.255000e-002 1.603372e-001 -3.405068e-003
         vertex -8.255000e-002 1.608851e-001 -2.857191e-003
      endloop
   endfacet
   facet normal 0.000000e+000 -7.274188e-001 6.861938e-001
      outer loop
         vertex -1.079500e-001 1.603372e-001 -3.405068e-003
         vertex -8.255000e-002 1.608851e-001 -2.857191e-003
         vertex -1.079500e-001 1.608851e-001 -2.857191e-003
      endloop
   endfacet
   facet normal 0.000000e+000 -8.020839e-001 5.972114e-001
      outer loop
         vertex -1.079500e-001 1.608851e-001 -2.857191e-003
         vertex -8.255000e-002 1.608851e-001 -2.857191e-003
         vertex -8.255000e-002 1.613295e-001 -2.222500e-003
      endloop
   endfacet
   facet normal 0.000000e+000 -8.355240e-001 5.494540e-001
      outer loop
         vertex -1.079500e-001 1.608851e-001 -2.857191e-003
         vertex -8.255000e-002 1.613295e-001 -2.222500e-003
         vertex -1.079500e-001 1.613295e-001 -2.222500e-003
      endloop
   endfacet
   facet normal 0.000000e+000 -8.936031e-001 4.488580e-001
      outer loop
         vertex -1.079500e-001 1.613295e-001 -2.222500e-003
         vertex -8.255000e-002 1.613295e-001 -2.222500e-003
         vertex -8.255000e-002 1.616569e-001 -1.520280e-003
      endloop
   endfacet
   facet normal 0.000000e+000 -9.182422e-001 3.960194e-001
      outer loop
         vertex -1.079500e-001 1.613295e-001 -2.222500e-003
         vertex -8.255000e-002 1.616569e-001 -1.520280e-003
         vertex -1.079500e-001 1.616569e-001 -1.520280e-003
      endloop
   endfacet
   facet normal 0.000000e+000 -9.579706e-001 2.868663e-001
      outer loop
         vertex -1.079500e-001 1.616569e-001 -1.520280e-003
         vertex -8.255000e-002 1.616569e-001 -1.520280e-003
         vertex -8.255000e-002 1.618575e-001 -7.718661e-004
      endloop
   endfacet
   facet normal 0.000000e+000 -9.730600e-001 2.305519e-001
      outer loop
         vertex -1.079500e-001 1.616569e-001 -1.520280e-003
         vertex -8.255000e-002 1.618575e-001 -7.718661e-004
         vertex -1.079500e-001 1.618575e-001 -7.718661e-004
      endloop
   endfacet
   facet normal 0.000000e+000 -9.932307e-001 1.161583e-001
      outer loop
         vertex -1.079500e-001 1.618575e-001 -7.718661e-004
         vertex -8.255000e-002 1.618575e-001 -7.718661e-004
         vertex -8.255000e-002 1.619250e-001 -2.760660e-018
      endloop
   endfacet
   facet normal 0.000000e+000 -9.983120e-001 5.807914e-002
      outer loop
         vertex -1.079500e-001 1.618575e-001 -7.718661e-004
         vertex -8.255000e-002 1.619250e-001 -2.760660e-018
         vertex -1.079500e-001 1.619250e-001 -2.760660e-018
      endloop
   endfacet
   facet normal 0.000000e+000 -9.983120e-001 -5.807914e-002
      outer loop
         vertex -1.079500e-001 1.619250e-001 -2.760660e-018
         vertex -8.255000e-002 1.619250e-001 -2.760660e-018
         vertex -8.255000e-002 1.618575e-001 7.718661e-004
      endloop
   endfacet
   facet normal 0.000000e+000 -9.932307e-001 -1.161583e-001
      outer loop
         vertex -1.079500e-001 1.619250e-001 -2.760660e-018
         vertex -8.255000e-002 1.618575e-001 7.718661e-004
         vertex -1.079500e-001 1.618575e-001 7.718661e-004
      endloop
   endfacet
   facet normal 0.000000e+000 -9.730600e-001 -2.305519e-001
      outer loop
         vertex -1.079500e-001 1.618575e-001 7.718661e-004
         vertex -8.255000e-002 1.618575e-001 7.718661e-004
         vertex -8.255000e-002 1.616569e-001 1.520280e-003
      endloop
   endfacet
   facet normal 0.000000e+000 -9.579706e-001 -2.868663e-001
      outer loop
         vertex -1.079500e-001 1.618575e-001 7.718661e-004
         vertex -8.255000e-002 1.616569e-001 1.520280e-003
         vertex -1.079500e-001 1.616569e-001 1.520280e-003
      endloop
   endfacet
   facet normal 0.000000e+000 -9.182422e-001 -3.960194e-001
      outer loop
         vertex -1.079500e-001 1.616569e-001 1.520280e-003
         vertex -8.255000e-002 1.616569e-001 1.520280e-003
         vertex -8.255000e-002 1.613295e-001 2.222500e-003
      endloop
   endfacet
   facet normal 0.000000e+000 -8.936031e-001 -4.488580e-001
      outer loop
         vertex -1.079500e-001 1.616569e-001 1.520280e-003
         vertex -8.255000e-002 1.613295e-001 2.222500e-003
         vertex -1.079500e-001 1.613295e-001 2.222500e-003
      endloop
   endfacet
   facet normal 0.000000e+000 -8.355240e-001 -5.494540e-001
      outer loop
         vertex -1.079500e-001 1.613295e-001 2.222500e-003
         vertex -8.255000e-002 1.613295e-001 2.222500e-003
         vertex -8.255000e-002 1.608851e-001 2.857191e-003
      endloop
   endfacet
   facet normal 0.000000e+000 -8.020839e-001 -5.972114e-001
      outer loop
         vertex -1.079500e-001 1.613295e-001 2.222500e-003
         vertex -8.255000e-002 1.608851e-001 2.857191e-003
         vertex -1.079500e-001 1.608851e-001 2.857191e-003
      endloop
   endfacet
   facet normal 0.000000e+000 -7.274188e-001 -6.861938e-001
      outer loop
         vertex -1.079500e-001 1.608851e-001 2.857191e-003
         vertex -8.255000e-002 1.608851e-001 2.857191e-003
         vertex -8.255000e-002 1.603372e-001 3.405068e-003
      endloop
   endfacet
   facet normal 0.000000e+000 -6.861938e-001 -7.274188e-001
      outer loop
         vertex -1.079500e-001 1.608851e-001 2.857191e-003
         vertex -8.255000e-002 1.603372e-001 3.405068e-003
         vertex -1.079500e-001 1.603372e-001 3.405068e-003
      endloop
   endfacet
   facet normal 0.000000e+000 -5.972114e-001 -8.020839e-001
      outer loop
         vertex -1.079500e-001 1.603372e-001 3.405068e-003
         vertex -8.255000e-002 1.603372e-001 3.405068e-003
         vertex -8.255000e-002 1.597025e-001 3.849483e-003
      endloop
   endfacet
   facet normal 0.000000e+000 -5.494540e-001 -8.355240e-001
      outer loop
         vertex -1.079500e-001 1.603372e-001 3.405068e-003
         vertex -8.255000e-002 1.597025e-001 3.849483e-003
         vertex -1.079500e-001 1.597025e-001 3.849483e-003
      endloop
   endfacet
   facet normal 0.000000e+000 -4.488580e-001 -8.936031e-001
      outer loop
         vertex -1.079500e-001 1.597025e-001 3.849483e-003
         vertex -8.255000e-002 1.597025e-001 3.849483e-003
         vertex -8.255000e-002 1.590003e-001 4.176934e-003
      endloop
   endfacet
   facet normal 0.000000e+000 -3.960194e-001 -9.182422e-001
      outer loop
         vertex -1.079500e-001 1.597025e-001 3.849483e-003
         vertex -8.255000e-002 1.590003e-001 4.176934e-003
         vertex -1.079500e-001 1.590003e-001 4.176934e-003
      endloop
   endfacet
   facet normal 0.000000e+000 -2.868663e-001 -9.579706e-001
      outer loop
         vertex -1.079500e-001 1.590003e-001 4.176934e-003
         vertex -8.255000e-002 1.590003e-001 4.176934e-003
         vertex -8.255000e-002 1.582519e-001 4.377470e-003
      endloop
   endfacet
   facet normal 0.000000e+000 -2.305519e-001 -9.730600e-001
      outer loop
         vertex -1.079500e-001 1.590003e-001 4.176934e-003
         vertex -8.255000e-002 1.582519e-001 4.377470e-003
         vertex -1.079500e-001 1.582519e-001 4.377470e-003
      endloop
   endfacet
   facet normal 0.000000e+000 -1.161583e-001 -9.932307e-001
      outer loop
         vertex -1.079500e-001 1.582519e-001 4.377470e-003
         vertex -8.255000e-002 1.582519e-001 4.377470e-003
         vertex -8.255000e-002 1.574800e-001 4.445000e-003
      endloop
   endfacet
   facet normal 0.000000e+000 -5.807914e-002 -9.983120e-001
      outer loop
         vertex -1.079500e-001 1.582519e-001 4.377470e-003
         vertex -8.255000e-002 1.574800e-001 4.445000e-003
         vertex -1.079500e-001 1.574800e-001 4.445000e-003
      endloop
   endfacet
   facet normal 0.000000e+000 5.807914e-002 -9.983120e-001
      outer loop
         vertex -1.079500e-001 1.574800e-001 4.445000e-003
         vertex -8.255000e-002 1.574800e-001 4.445000e-003
         vertex -8.255000e-002 1.567081e-001 4.377470e-003
      endloop
   endfacet
   facet normal 0.000000e+000 1.161583e-001 -9.932307e-001
      outer loop
         vertex -1.079500e-001 1.574800e-001 4.445000e-003
         vertex -8.255000e-002 1.567081e-001 4.377470e-003
         vertex -1.079500e-001 1.567081e-001 4.377470e-003
      endloop
   endfacet
   facet normal 0.000000e+000 2.305519e-001 -9.730600e-001
      outer loop
         vertex -1.079500e-001 1.567081e-001 4.377470e-003
         vertex -8.255000e-002 1.567081e-001 4.377470e-003
         vertex -8.255000e-002 1.559597e-001 4.176934e-003
      endloop
   endfacet
   facet normal 0.000000e+000 2.868663e-001 -9.579706e-001
      outer loop
         vertex -1.079500e-001 1.567081e-001 4.377470e-003
         vertex -8.255000e-002 1.559597e-001 4.176934e-003
         vertex -1.079500e-001 1.559597e-001 4.176934e-003
      endloop
   endfacet
   facet normal 0.000000e+000 3.960194e-001 -9.182422e-001
      outer loop
         vertex -1.079500e-001 1.559597e-001 4.176934e-003
         vertex -8.255000e-002 1.559597e-001 4.176934e-003
         vertex -8.255000e-002 1.552575e-001 3.849483e-003
      endloop
   endfacet
   facet normal 0.000000e+000 4.488580e-001 -8.936031e-001
      outer loop
         vertex -1.079500e-001 1.559597e-001 4.176934e-003
         vertex -8.255000e-002 1.552575e-001 3.849483e-003
         vertex -1.079500e-001 1.552575e-001 3.849483e-003
      endloop
   endfacet
   facet normal 0.000000e+000 5.494540e-001 -8.355240e-001
      outer loop
         vertex -1.079500e-001 1.552575e-001 3.849483e-003
         vertex -8.255000e-002 1.552575e-001 3.849483e-003
         vertex -8.255000e-002 1.546228e-001 3.405068e-003
      endloop
   endfacet
   facet normal 0.000000e+000 5.972114e-001 -8.020839e-001
      outer loop
         vertex -1.079500e-001 1.552575e-001 3.849483e-003
         vertex -8.255000e-002 1.546228e-001 3.405068e-003
         vertex -1.079500e-001 1.546228e-001 3.405068e-003
      endloop
   endfacet
   facet normal 0.000000e+000 6.861938e-001 -7.274188e-001
      outer loop
         vertex -1.079500e-001 1.546228e-001 3.405068e-003
         vertex -8.255000e-002 1.546228e-001 3.405068e-003
         vertex -8.255000e-002 1.540749e-001 2.857191e-003
      endloop
   endfacet
   facet normal 0.000000e+000 7.274188e-001 -6.861938e-001
      outer loop
         vertex -1.079500e-001 1.546228e-001 3.405068e-003
         vertex -8.255000e-002 1.540749e-001 2.857191e-003
         vertex -1.079500e-001 1.540749e-001 2.857191e-003
      endloop
   endfacet
   facet normal 0.000000e+000 8.020839e-001 -5.972114e-001
      outer loop
         vertex -1.079500e-001 1.540749e-001 2.857191e-003
         vertex -8.255000e-002 1.540749e-001 2.857191e-003
         vertex -8.255000e-002 1.536305e-001 2.222500e-003
      endloop
   endfacet
   facet normal 0.000000e+000 8.355240e-001 -5.494540e-001
      outer loop
         vertex -1.079500e-001 1.540749e-001 2.857191e-003
         vertex -8.255000e-002 1.536305e-001 2.222500e-003
         vertex -1.079500e-001 1.536305e-001 2.222500e-003
      endloop
   endfacet
   facet normal 0.000000e+000 8.936031e-001 -4.488580e-001
      outer loop
         vertex -1.079500e-001 1.536305e-001 2.222500e-003
         vertex -8.255000e-002 1.536305e-001 2.222500e-003
         vertex -8.255000e-002 1.533031e-001 1.520280e-003
      endloop
   endfacet
   facet normal 0.000000e+000 9.182422e-001 -3.960194e-001
      outer loop
         vertex -1.079500e-001 1.536305e-001 2.222500e-003
         vertex -8.255000e-002 1.533031e-001 1.520280e-003
         vertex -1.079500e-001 1.533031e-001 1.520280e-003
      endloop
   endfacet
   facet normal 0.000000e+000 9.579706e-001 -2.868663e-001
      outer loop
         vertex -1.079500e-001 1.533031e-001 1.520280e-003
         vertex -8.255000e-002 1.533031e-001 1.520280e-003
         vertex -8.255000e-002 1.531025e-001 7.718661e-004
      endloop
   endfacet
   facet normal 0.000000e+000 9.730600e-001 -2.305519e-001
      outer loop
         vertex -1.079500e-001 1.533031e-001 1.520280e-003
         vertex -8.255000e-002 1.531025e-001 7.718661e-004
         vertex -1.079500e-001 1.531025e-001 7.718661e-004
      endloop
   endfacet
   facet normal 0.000000e+000 9.932307e-001 -1.161583e-001
      outer loop
         vertex -1.079500e-001 1.531025e-001 7.718661e-004
         vertex -8.255000e-002 1.531025e-001 7.718661e-004
         vertex -8.255000e-002 1.530350e-001 -1.671949e-018
      endloop
   endfacet
   facet normal 0.000000e+000 9.983120e-001 -5.807914e-002
      outer loop
         vertex -1.079500e-001 1.531025e-001 7.718661e-004
         vertex -8.255000e-002 1.530350e-001 -1.671949e-018
         vertex -1.079500e-001 1.530350e-001 -1.671949e-018
      endloop
   endfacet
   facet normal 0.000000e+000 9.983120e-001 5.807914e-002
      outer loop
         vertex -1.079500e-001 1.530350e-001 -1.671949e-018
         vertex -8.255000e-002 1.530350e-001 -1.671949e-018
         vertex -8.255000e-002 1.531025e-001 -7.718661e-004
      endloop
   endfacet
   facet normal 0.000000e+000 9.932307e-001 1.161583e-001
      outer loop
         vertex -1.079500e-001 1.530350e-001 -1.671949e-018
         vertex -8.255000e-002 1.531025e-001 -7.718661e-004
         vertex -1.079500e-001 1.531025e-001 -7.718661e-004
      endloop
   endfacet
   facet normal 0.000000e+000 9.730600e-001 2.305519e-001
      outer loop
         vertex -1.079500e-001 1.531025e-001 -7.718661e-004
         vertex -8.255000e-002 1.531025e-001 -7.718661e-004
         vertex -8.255000e-002 1.533031e-001 -1.520280e-003
      endloop
   endfacet
   facet normal 0.000000e+000 9.579706e-001 2.868663e-001
      outer loop
         vertex -1.079500e-001 1.531025e-001 -7.718661e-004
         vertex -8.255000e-002 1.533031e-001 -1.520280e-003
         vertex -1.079500e-001 1.533031e-001 -1.520280e-003
      endloop
   endfacet
   facet normal 0.000000e+000 9.182422e-001 3.960194e-001
      outer loop
         vertex -1.079500e-001 1.533031e-001 -1.520280e-003
         vertex -8.255000e-002 1.533031e-001 -1.520280e-003
         vertex -8.255000e-002 1.536305e-001 -2.222500e-003
      endloop
   endfacet
   facet normal 0.000000e+000 8.936031e-001 4.488580e-001
      outer loop
         vertex -1.079500e-001 1.533031e-001 -1.520280e-003
         vertex -8.255000e-002 1.536305e-001 -2.222500e-003
         vertex -1.079500e-001 1.536305e-001 -2.222500e-003
      endloop
   endfacet
   facet normal 0.000000e+000 8.355240e-001 5.494540e-001
      outer loop
         vertex -1.079500e-001 1.536305e-001 -2.222500e-003
         vertex -8.255000e-002 1.536305e-001 -2.222500e-003
         vertex -8.255000e-002 1.540749e-001 -2.857191e-003
      endloop
   endfacet
   facet normal 0.000000e+000 8.020839e-001 5.972114e-001
      outer loop
         vertex -1.079500e-001 1.536305e-001 -2.222500e-003
         vertex -8.255000e-002 1.540749e-001 -2.857191e-003
         vertex -1.079500e-001 1.540749e-001 -2.857191e-003
      endloop
   endfacet
   facet normal 0.000000e+000 7.274188e-001 6.861938e-001
      outer loop
         vertex -1.079500e-001 1.540749e-001 -2.857191e-003
         vertex -8.255000e-002 1.540749e-001 -2.857191e-003
         vertex -8.255000e-002 1.546228e-001 -3.405068e-003
      endloop
   endfacet
   facet normal 0.000000e+000 6.861938e-001 7.274188e-001
      outer loop
         vertex -1.079500e-001 1.540749e-001 -2.857191e-003
         vertex -8.255000e-002 1.546228e-001 -3.405068e-003
         vertex -1.079500e-001 1.546228e-001 -3.405068e-003
      endloop
   endfacet
   facet normal 0.000000e+000 5.972114e-001 8.020839e-001
      outer loop
         vertex -1.079500e-001 1.546228e-001 -3.405068e-003
         vertex -8.255000e-002 1.546228e-001 -3.405068e-003
         vertex -8.255000e-002 1.552575e-001 -3.849483e-003
      endloop
   endfacet
   facet normal 0.000000e+000 5.494540e-001 8.355240e-001
      outer loop
         vertex -1.079500e-001 1.546228e-001 -3.405068e-003
         vertex -8.255000e-002 1.552575e-001 -3.849483e-003
         vertex -1.079500e-001 1.552575e-001 -3.849483e-003
      endloop
   endfacet
   facet normal 0.000000e+000 4.488580e-001 8.936031e-001
      outer loop
         vertex -1.079500e-001 1.552575e-001 -3.849483e-003
         vertex -8.255000e-002 1.552575e-001 -3.849483e-003
         vertex -8.255000e-002 1.559597e-001 -4.176934e-003
      endloop
   endfacet
   facet normal 0.000000e+000 3.960194e-001 9.182422e-001
      outer loop
         vertex -1.079500e-001 1.552575e-001 -3.849483e-003
         vertex -8.255000e-002 1.559597e-001 -4.176934e-003
         vertex -1.079500e-001 1.559597e-001 -4.176934e-003
      endloop
   endfacet
   facet normal 0.000000e+000 2.868663e-001 9.579706e-001
      outer loop
         vertex -1.079500e-001 1.559597e-001 -4.176934e-003
         vertex -8.255000e-002 1.559597e-001 -4.176934e-003
         vertex -8.255000e-002 1.567081e-001 -4.377470e-003
      endloop
   endfacet
   facet normal 0.000000e+000 2.305519e-001 9.730600e-001
      outer loop
         vertex -1.079500e-001 1.559597e-001 -4.176934e-003
         vertex -8.255000e-002 1.567081e-001 -4.377470e-003
         vertex -1.079500e-001 1.567081e-001 -4.377470e-003
      endloop
   endfacet
   facet normal 0.000000e+000 1.161583e-001 9.932307e-001
      outer loop
         vertex -1.079500e-001 1.567081e-001 -4.377470e-003
         vertex -8.255000e-002 1.567081e-001 -4.377470e-003
         vertex -8.255000e-002 1.574800e-001 -4.445000e-003
      endloop
   endfacet
endsolid